<?xml version="1.0" encoding="UTF-8"?>
<svg id="Layer_2" data-name="Layer 2" xmlns="http://www.w3.org/2000/svg" viewBox="0 0 803.92 133.53">
  <defs>
    <style>
      .cls-1 {
        fill: #ff9d11;
      }

      .cls-2 {
        fill: #22a3d3;
      }
    </style>
  </defs>
  <g id="Layer_1-2" data-name="Layer 1">
    <g>
      <path class="cls-2" d="M36.78,29.5H0V0h107.18v29.5h-36.58v101.67h-33.82V29.5Z"/>
      <path class="cls-2" d="M171.09,119.76c-5.9,6.69-16.91,13.77-32.84,13.77-21.63,0-31.27-12.19-31.27-29.69V36.18h30.29v55.26c0,11.41,5.9,15.34,15.73,15.34,8.65,0,14.55-4.72,18.09-9.24v-61.36h30.29v94.98h-30.29v-11.41Z"/>
      <path class="cls-2" d="M225.76,105.6v-43.07h-15.73v-26.35h15.73V10.23h30.09v25.96h19.27v26.35h-19.27v34.61c0,5.51,3.15,9.64,8.46,9.64,3.34,0,6.69-1.18,7.67-2.36l5.9,22.81c-3.74,3.54-11.21,6.29-22.42,6.29-19.27,0-29.69-9.64-29.69-27.92Z"/>
      <path class="cls-2" d="M280.03,83.58c0-26.75,19.47-49.75,51.72-49.75s51.92,23.01,51.92,49.75-19.27,49.95-51.92,49.95-51.72-23.21-51.72-49.95ZM352.6,83.58c0-12.59-7.47-23.01-20.85-23.01s-20.45,10.42-20.45,23.01,7.28,23.21,20.45,23.21,20.85-10.42,20.85-23.21Z"/>
      <path class="cls-2" d="M395.66,36.18h30.29v12c6.29-7.67,18.29-14.36,29.69-14.36v29.3c-1.77-.59-4.33-.98-7.47-.98-7.87,0-18.29,3.34-22.22,8.85v60.18h-30.29V36.18Z"/>
      <path class="cls-1" d="M466.26,0h96.16v28.51h-62.34v21.83h60.96v28.71h-60.96v23.6h62.34v28.51h-96.16V0Z"/>
      <path class="cls-1" d="M616.7,102.46l-18.49,28.71h-33.04l32.45-48.77-30.48-46.21h33.24l16.32,25.76,16.13-25.76h33.23l-30.29,46.21,32.45,48.77h-33.23l-18.29-28.71Z"/>
      <path class="cls-1" d="M714.05,33.82c28.12,0,48.57,20.65,48.57,52.9v6.49h-67.65c1.77,8.85,10.03,16.91,24.19,16.91,8.46,0,17.9-3.34,23.21-8.06l12.78,18.88c-9.44,8.46-25.17,12.59-39.72,12.59-29.3,0-51.92-19.08-51.92-49.95,0-27.53,20.85-49.75,50.54-49.75ZM694.58,73.55h39.13c-.79-6.69-5.7-16.32-19.67-16.32-13.18,0-18.29,9.44-19.47,16.32Z"/>
      <path class="cls-1" d="M773.63,0h30.29v131.17h-30.29V0Z"/>
    </g>
  </g>
</svg>