<svg width="246" height="246" viewBox="0 0 246 246" fill="none" xmlns="http://www.w3.org/2000/svg">
<ellipse cx="123" cy="123" rx="120" ry="120" stroke="#14D84C" stroke-width="6" stroke-linecap="round" stroke-dasharray="10 20"/>
<ellipse cx="123" cy="123" rx="99.0291" ry="99.0292" fill="#14D84C"/>
<path d="M121.363 80.0668C126.691 79.3313 129.818 84.8639 133.694 87.5807C137.318 87.7961 142.911 85.8966 146.216 87.3974C150.985 89.5619 150.367 96.6201 151.974 100.88C156.863 104.669 165.242 106.021 162.437 114.176C161.502 116.896 159.824 119.59 158.967 122.381C159.888 126.527 164.034 131.227 162.72 135.593C161.477 139.722 155.077 141.517 151.969 144.053C150.635 147.528 150.773 153.645 148.094 156.28C144.447 159.869 138.194 157.09 133.691 157.357L126.73 163.512C120.244 168.14 115.982 160.782 111.329 157.357C110.977 157.268 110.62 157.305 110.263 157.32C107.042 157.454 102.303 158.766 99.3061 157.776C94.0329 156.035 94.6751 148.395 93.0486 144.051C88.2577 140.272 79.7094 138.843 82.5834 130.759C83.5505 128.038 85.1745 125.346 86.053 122.554C85.3197 119.444 83.0411 116.244 82.266 113.196C80.3959 105.838 88.74 104.386 93.0462 100.877C93.9837 97.9822 94.2814 94.7725 95.1574 91.8799C97.5098 84.1184 105.443 87.6673 111.329 87.5757L118.841 81.05C119.545 80.6067 120.537 80.1758 121.359 80.0619L121.363 80.0668ZM137.382 109.538C136.809 109.644 136.287 110.035 135.862 110.417L118.278 128.503C118.051 128.607 117.51 128.139 117.296 127.998C114.643 126.244 111.139 122.946 108.504 121.646C105.138 119.986 102.527 123.998 105.027 126.443L117.074 135.081C120.057 136.606 122.043 133.057 123.797 131.272C128.595 126.381 133.743 121.482 138.357 116.452C138.945 115.811 140.749 113.934 140.889 113.255C141.364 110.944 139.715 109.107 137.382 109.54V109.538Z" fill="white"/>
</svg>
