<svg width="45" height="45" viewBox="0 0 45 45" fill="none" xmlns="http://www.w3.org/2000/svg">
<path d="M38.6146 23.2741V27.1853C38.6146 29.334 35.7598 30.4824 34.2802 28.9684L30.3208 25.2053V33.2671C30.3208 36.0184 27.8371 38.4078 25.2186 38.6241C22.4642 38.852 19.4428 38.4413 16.6604 38.646L10.2719 44.6312C9.27663 45.2621 7.92673 45.0574 7.11832 44.2167C5.90951 42.9602 6.56031 40.2411 6.39253 38.6267H5.00958C2.90847 38.6267 0.481964 36.2012 0.22012 34.1117C0.211223 29.8027 -0.173917 25.0984 0.0955535 20.8074C0.223933 18.7591 1.22936 16.8511 3.08516 15.9178C3.36352 15.7787 4.47191 15.3551 4.72232 15.3551H14.6851V5.45869C14.6851 5.43037 14.7715 5.29519 14.7843 5.17288C15.0792 2.32767 16.7786 0.462186 19.6068 0.0154491L39.8095 0C42.6351 0.272935 44.6574 2.42809 44.8938 5.27845C44.6981 9.39693 45.1989 13.8334 44.9053 17.9146C44.7667 19.8328 43.8642 21.5412 42.2055 22.5184C41.7822 22.7682 40.6395 23.2741 40.187 23.2741H38.6134H38.6146ZM35.85 26.5571V21.4872C35.85 21.4048 36.1741 20.9464 36.2784 20.8589C37.2228 20.0555 39.3417 20.8023 40.5581 20.2693C41.5712 19.8264 42.0733 18.7977 42.1457 17.7253C42.4203 13.6957 41.9398 9.339 42.1317 5.27588C41.9563 4.00776 41.125 3.07695 39.8768 2.82848C33.0155 2.86581 26.0982 2.62506 19.2648 2.95078C18.1781 3.35504 17.5514 4.30387 17.4523 5.45998C17.6569 9.43298 17.1752 13.6905 17.4459 17.6287C17.5387 18.9831 18.1768 20.0993 19.5419 20.4302C22.496 20.7018 25.7334 20.2165 28.6544 20.4701C29.6458 20.5564 30.1009 21.1421 30.7974 21.7755C32.5083 23.332 34.0768 25.0726 35.8487 26.5571H35.85ZM9.15715 36.8397V41.9096L15.4783 36.0003C15.6969 35.8858 15.9155 35.8446 16.1608 35.8227C19.0755 35.5626 22.3422 36.0441 25.2936 35.8034C26.3245 35.6695 27.5574 34.4207 27.5574 33.365V23.2741H19.4072C19.275 23.2741 18.4704 23.0308 18.2848 22.9626C16.3248 22.2467 14.858 20.2731 14.7843 18.1566H5.10492C3.80586 18.3729 2.94279 19.5174 2.86144 20.8087C3.12202 24.8062 2.52588 29.2285 2.86144 33.1744C2.97838 34.5481 3.90755 35.6836 5.29685 35.8252C6.33024 35.9308 8.8648 35.3656 9.15715 36.8397Z" fill="black"/>
<path d="M6.51964 11.171C5.76207 10.4037 6.15483 8.99526 7.22509 8.81373C7.81615 8.71331 9.92489 8.71331 10.5159 8.81373C12.0146 9.06864 12.0044 11.2998 10.4206 11.5675C9.82574 11.668 8.1085 11.6589 7.48821 11.5907C7.19459 11.5585 6.72683 11.3809 6.51964 11.171Z" fill="black"/>
<path d="M34.5827 33.9147C34.9895 33.8233 37.8418 33.8362 38.2359 33.9404C39.4459 34.2597 39.39 36.3878 38.0833 36.5926C37.627 36.6646 34.8853 36.6659 34.5103 36.5552C33.3396 36.205 33.4019 34.1825 34.5815 33.916L34.5827 33.9147Z" fill="black"/>
<path d="M24.292 7.36666C27.7811 7.55462 31.6923 7.02807 35.1331 7.34349C36.9457 7.50956 37.2902 9.50894 35.6047 10.1359H23.9869C22.4248 9.65571 22.6434 7.53789 24.292 7.36666Z" fill="black"/>
<path d="M36.2936 13.3609C36.9915 14.0677 36.7093 15.2959 35.8068 15.65L24.0823 15.7362C22.4667 15.35 22.5938 13.1227 24.2666 12.9425C27.8002 13.1845 31.7508 12.6207 35.2335 12.9386C35.578 12.9695 36.047 13.1124 36.2936 13.3622V13.3609Z" fill="black"/>
<path d="M9.99098 25.5168C11.679 25.2465 12.2306 27.5213 10.8629 28.1393C8.87242 29.0379 8.05638 25.8258 9.99098 25.5168Z" fill="black"/>
<path d="M15.5202 25.5168C17.0519 25.2709 17.7751 27.2947 16.4354 28.0865C14.5351 29.2104 13.489 25.8425 15.5202 25.5168Z" fill="black"/>
<path d="M21.0495 25.5155C22.8963 25.2413 23.1709 28.1213 21.3952 28.2899C19.6818 28.4521 19.2534 25.782 21.0495 25.5155Z" fill="black"/>
</svg>
