<svg width="103" height="103" viewBox="0 0 103 103" fill="none" xmlns="http://www.w3.org/2000/svg">
<path d="M53.001 0.0214844C55.0206 0.0792871 57.0109 0.254196 58.9658 0.538086L58.8232 1.52734C59.7967 1.66873 60.7613 1.83713 61.7158 2.0332L61.916 1.05371C63.889 1.45895 65.8205 1.9777 67.7041 2.60156L67.3906 3.55078C68.3229 3.85957 69.2431 4.19488 70.1504 4.55566L70.5195 3.62695C72.3842 4.3684 74.1952 5.21553 75.9453 6.16113L75.4707 7.04004C76.3338 7.50638 77.1817 7.99747 78.0137 8.51172L78.5371 7.66309C80.2402 8.71572 81.8778 9.86362 83.4414 11.1016L82.8223 11.8848C83.5906 12.4931 84.3411 13.1233 85.0723 13.7744L85.7344 13.0303C87.2263 14.3589 88.6401 15.7727 89.9688 17.2646L89.2256 17.9277C89.8767 18.6589 90.5069 19.4094 91.1152 20.1777L91.8975 19.5576C93.1354 21.1212 94.2833 22.7589 95.3359 24.4619L94.4883 24.9863C95.0025 25.8183 95.4936 26.6662 95.96 27.5293L96.8379 27.0537C97.7835 28.8038 98.6306 30.6149 99.3721 32.4795L98.4443 32.8496C98.8051 33.7569 99.1404 34.6771 99.4492 35.6094L100.397 35.2949C101.021 37.1785 101.54 39.1101 101.945 41.083H101.946L100.967 41.2842C101.163 42.2387 101.331 43.2033 101.473 44.1768L102.461 44.0332C102.745 45.9881 102.92 47.9784 102.978 49.998L101.979 50.0273C101.993 50.5165 102 51.0074 102 51.5C102 51.9926 101.993 52.4835 101.979 52.9727L102.978 53.001C102.92 55.0206 102.745 57.0109 102.461 58.9658L101.473 58.8232C101.331 59.7967 101.163 60.7613 100.967 61.7158L101.945 61.916C101.54 63.889 101.021 65.8205 100.397 67.7041L99.4492 67.3906C99.1404 68.3229 98.8051 69.2431 98.4443 70.1504L99.3721 70.5195C98.6306 72.3842 97.7835 74.1952 96.8379 75.9453L95.96 75.4707C95.4936 76.3338 95.0025 77.1817 94.4883 78.0137L95.3359 78.5371C94.2833 80.2402 93.1354 81.8778 91.8975 83.4414L91.1152 82.8223C90.5069 83.5906 89.8767 84.3411 89.2256 85.0723L89.9697 85.7344C88.6409 87.2265 87.2265 88.6399 85.7344 89.9688L85.0723 89.2256C84.3411 89.8767 83.5906 90.5069 82.8223 91.1152L83.4414 91.8975C81.8778 93.1354 80.2402 94.2833 78.5371 95.3359L78.0137 94.4883C77.1817 95.0025 76.3338 95.4936 75.4707 95.96L75.9453 96.8379C74.1952 97.7835 72.3842 98.6306 70.5195 99.3721L70.1504 98.4443C69.2431 98.8051 68.3229 99.1404 67.3906 99.4492L67.7041 100.397C65.8205 101.021 63.889 101.54 61.916 101.945L61.7158 100.967C60.7613 101.163 59.7967 101.331 58.8232 101.473L58.9658 102.461C57.0109 102.745 55.0206 102.92 53.001 102.978L52.9727 101.979C52.4835 101.993 51.9926 102 51.5 102C51.0074 102 50.5165 101.993 50.0273 101.979L49.998 102.978C47.9784 102.92 45.9881 102.745 44.0332 102.461L44.1768 101.473C43.2033 101.331 42.2387 101.163 41.2842 100.967L41.083 101.945C39.1101 101.54 37.1785 101.021 35.2949 100.397L35.6094 99.4492C34.6771 99.1404 33.7569 98.8051 32.8496 98.4443L32.4795 99.3721C30.6149 98.6306 28.8038 97.7835 27.0537 96.8379L27.5293 95.96C26.6662 95.4936 25.8183 95.0025 24.9863 94.4883L24.4619 95.3359C22.7589 94.2833 21.1212 93.1355 19.5576 91.8975L20.1777 91.1152C19.4094 90.5069 18.6589 89.8767 17.9277 89.2256L17.2646 89.9688C15.7726 88.6399 14.358 87.2265 13.0293 85.7344L13.7744 85.0723C13.1233 84.3411 12.4931 83.5906 11.8848 82.8223L11.1016 83.4414C9.86362 81.8778 8.71572 80.2402 7.66309 78.5371L8.51172 78.0137C7.99747 77.1817 7.50638 76.3338 7.04004 75.4707L6.16113 75.9453C5.21553 74.1952 4.3684 72.3842 3.62695 70.5195L4.55566 70.1504C4.19488 69.2431 3.85957 68.3229 3.55078 67.3906L2.60156 67.7041C1.9777 65.8205 1.45895 63.889 1.05371 61.916L2.0332 61.7158C1.83713 60.7613 1.66873 59.7967 1.52734 58.8232L0.538086 58.9658C0.254197 57.0109 0.0792867 55.0206 0.0214844 53.001L1.02148 52.9727C1.00748 52.4835 1 51.9926 1 51.5C1 51.0074 1.00748 50.5165 1.02148 50.0273L0.0214844 49.998C0.0793251 47.9785 0.25416 45.9881 0.538086 44.0332L1.52734 44.1768C1.66873 43.2033 1.83712 42.2387 2.0332 41.2842L1.05371 41.083C1.45898 39.1101 1.97767 37.1785 2.60156 35.2949L3.55078 35.6094C3.85957 34.6771 4.19488 33.7569 4.55566 32.8496L3.62695 32.4795C4.36842 30.6149 5.21551 28.8038 6.16113 27.0537L7.04004 27.5293C7.50639 26.6662 7.99747 25.8183 8.51172 24.9863L7.66309 24.4619C8.71573 22.7589 9.86361 21.1212 11.1016 19.5576L11.8848 20.1777C12.4931 19.4094 13.1233 18.6589 13.7744 17.9277L13.0303 17.2646C14.3589 15.7728 15.7728 14.3589 17.2646 13.0303L17.9277 13.7744C18.6589 13.1233 19.4094 12.4931 20.1777 11.8848L19.5576 11.1016C21.1212 9.86361 22.7589 8.71573 24.4619 7.66309L24.9863 8.51172C25.8183 7.99747 26.6662 7.50639 27.5293 7.04004L27.0537 6.16113C28.8038 5.21551 30.6149 4.36842 32.4795 3.62695L32.8496 4.55566C33.7569 4.19488 34.6771 3.85957 35.6094 3.55078L35.2949 2.60156C37.1785 1.97767 39.1101 1.45898 41.083 1.05371L41.2842 2.0332C42.2387 1.83713 43.2033 1.66873 44.1768 1.52734L44.0332 0.538086C45.9881 0.25416 47.9785 0.0793247 49.998 0.0214844L50.0273 1.02148C50.5165 1.00748 51.0074 1 51.5 1C51.9926 1 52.4835 1.00748 52.9727 1.02148L53.001 0.0214844Z" stroke="#FF9E10" stroke-width="2" stroke-dasharray="3 6"/>
<ellipse cx="51.5" cy="51.5001" rx="42.5" ry="42.5" fill="#FF9E10"/>
<path d="M38.5322 74.0005C36.5921 73.689 35.1403 72.3119 35 70.3525L35.0044 36.3189C34.9901 34.9794 36.8805 32.9234 38.224 32.9234H42.1496C41.8976 35.4574 41.6579 38.8486 44.8609 39.6059C48.8395 39.6231 53.1396 39.9443 57.1061 39.7166C59.2296 39.5952 60.7521 38.4705 60.9377 36.3167C61.0283 35.2587 60.9421 33.9761 60.8504 32.9234H64.776C66.1184 32.9234 68.0099 34.9794 67.9956 36.3189L68 70.3525C67.9249 72.2001 66.3283 73.7953 64.4678 74.0005H38.5322ZM41.2093 45.4989C40.921 45.7804 40.7839 46.2874 40.8646 46.6773C40.9364 47.0243 42.5318 49.6894 42.818 50.017C43.3914 50.6733 44.4024 50.6121 44.9206 49.9311C46.0088 48.0083 48.0838 45.9931 49.0682 44.0896C49.7797 42.7146 48.4981 41.6157 47.1833 42.3397L43.9571 46.7579C43.8477 46.7622 43.3262 45.7374 43.1583 45.5612C42.6357 45.0123 41.7584 44.9618 41.2082 45.4989H41.2093ZM51.6536 46.7794C50.1731 47.2219 50.352 49.148 51.9077 49.3284C54.7063 49.6528 58.1126 49.1136 60.9742 49.3284C62.5895 49.1426 62.6989 47.1059 61.1532 46.7676L51.6536 46.7805V46.7794ZM52.0104 51.4242C50.4095 51.5037 50.1145 53.5081 51.6381 53.9722H61.2427C62.816 53.3943 62.5 51.5896 60.7963 51.4102C58.0507 51.1223 54.8069 51.5832 52.0104 51.4242ZM44.0013 56.2978C43.9129 56.3569 43.2445 55.171 43.124 55.0485C42.2269 54.1322 40.658 54.9035 40.8458 56.1474C40.8978 56.4944 42.3131 58.8307 42.607 59.2475C43.1616 60.0328 43.9262 60.2788 44.7526 59.6493L49.1378 53.5221C49.7665 52.3254 48.381 51.0504 47.2231 51.8292C46.9966 51.9817 46.7524 52.3523 46.5778 52.5757C45.6575 53.7616 44.8498 55.0614 44.0024 56.2978H44.0013ZM51.5652 56.3171C50.0847 56.9831 50.4139 58.689 52.0856 58.8651C54.8135 59.1519 58.0187 58.6825 60.7974 58.8651C62.4315 58.82 62.8304 56.7962 61.2438 56.3032L51.5663 56.3171H51.5652Z" fill="white"/>
<path d="M57.5878 30.0016C57.9756 30.2357 58.2352 30.4183 58.296 30.9017C58.4308 31.9953 58.4209 35.0417 58.2938 36.1459C58.2109 36.8732 57.8154 37.0783 57.1061 37.1364C53.481 36.9366 49.5753 37.392 45.9834 37.1364C45.2476 37.0837 44.7979 36.9366 44.7073 36.1449C44.5184 34.4917 44.8432 32.5109 44.7128 30.8222C44.7924 30.3883 45.0642 30.2153 45.4133 30.0005H57.5867L57.5878 30.0016Z" fill="white"/>
</svg>
