<svg width="49" height="49" viewBox="0 0 49 49" fill="none" xmlns="http://www.w3.org/2000/svg">
<path d="M0 12.4428C0.470859 8.67436 3.09313 5.32253 6.77323 4.24273C8.34149 3.7827 9.86253 3.79932 11.4844 3.83382V1.58606C11.4844 0.729892 12.6341 -0.0151017 13.4457 0.000232618C14.2572 0.015567 15.3125 0.774617 15.3125 1.58606V3.83382H30.625V1.58606C30.625 0.729892 31.7747 -0.0151017 32.5863 0.000232618C33.3978 0.015567 34.4531 0.774617 34.4531 1.58606V3.83382C38.5301 3.47346 42.3825 4.85355 44.5428 8.43284C46.0574 10.9438 46.1914 14.3966 45.9413 17.2769C45.8737 18.0577 45.2216 19.1388 44.359 19.1388H3.82813V37.0736C3.82813 38.5904 5.4487 40.6299 6.73112 41.3467C9.42612 42.8521 15.6188 41.7978 18.9058 42.0917C21.2971 42.3051 21.3533 45.5752 18.9977 45.9215C15.6902 45.7413 12.1313 46.1617 8.85445 45.9202C4.35513 45.588 0.417266 41.8259 0.00127604 37.3125V12.4428H0ZM11.4844 7.65974H8.85318C6.72602 7.65974 3.82813 10.549 3.82813 12.6817V15.3116H42.1094V12.6817C42.1094 10.5554 39.2179 7.65974 37.0843 7.65974H34.4531V9.9075C34.4531 10.7637 33.3034 11.5087 32.4919 11.4933C31.6803 11.478 30.625 10.7189 30.625 9.9075V7.65974H15.3125V9.9075C15.3125 10.7637 14.1628 11.5087 13.3512 11.4933C12.5397 11.478 11.4844 10.7189 11.4844 9.9075V7.65974Z" fill="#FF9E10"/>
<path d="M49 34.5383V36.6429C48.8571 37.2742 48.8035 37.9221 48.6657 38.5572C47.6474 43.2367 43.9239 47.1406 39.334 48.4568L36.6543 48.9832C35.9665 48.9449 35.229 49.0356 34.5488 48.9832C23.7382 48.1603 18.2767 35.052 25.4545 26.8366C33.2766 17.8839 48.1042 22.7858 49 34.5396V34.5383ZM34.7211 26.0546C28.0857 26.6475 24.0559 33.815 27.0164 39.8197C30.3443 46.5732 39.9809 47 43.8142 40.4982C47.798 33.7396 42.4935 25.3607 34.7224 26.0546H34.7211Z" fill="#FF9E10"/>
<path d="M9.26023 22.9902C11.954 22.6324 12.236 26.5529 9.79745 26.7817C7.21346 27.0245 6.92508 23.3008 9.26023 22.9902Z" fill="#FF9E10"/>
<path d="M16.9165 22.9902C19.6102 22.6324 19.8922 26.5529 17.4537 26.7817C14.8697 27.0245 14.5813 23.3008 16.9165 22.9902Z" fill="#FF9E10"/>
<path d="M9.26023 30.6421C11.954 30.2843 12.236 34.2048 9.79745 34.4335C7.21346 34.6763 6.92508 30.9526 9.26023 30.6421Z" fill="#FF9E10"/>
<path d="M16.9165 30.6421C19.6102 30.2843 19.8922 34.2048 17.4537 34.4335C14.8697 34.6763 14.5813 30.9526 16.9165 30.6421Z" fill="#FF9E10"/>
<path d="M37.5156 33.677H39.764C40.2374 33.677 40.9814 34.3249 41.1702 34.7594C41.7483 36.096 40.9048 37.3841 39.4807 37.5068C38.4714 37.5937 36.4578 37.6039 35.4586 37.5017C34.4595 37.3994 33.7883 36.7234 33.6875 35.7318C33.5867 34.7402 33.5956 32.7212 33.6824 31.7117C33.8049 30.2881 35.0937 29.4447 36.431 30.0236C36.8648 30.2114 37.5131 30.9552 37.5131 31.428V33.6757L37.5156 33.677Z" fill="#FF9E10"/>
</svg>
