<svg width="103" height="103" viewBox="0 0 103 103" fill="none" xmlns="http://www.w3.org/2000/svg">
<path d="M53.001 0.0214844C55.0206 0.0792871 57.0109 0.254196 58.9658 0.538086L58.8232 1.52734C59.7967 1.66873 60.7613 1.83713 61.7158 2.0332L61.916 1.05371C63.889 1.45895 65.8205 1.9777 67.7041 2.60156L67.3906 3.55078C68.3229 3.85957 69.2431 4.19488 70.1504 4.55566L70.5195 3.62695C72.3842 4.3684 74.1952 5.21553 75.9453 6.16113L75.4707 7.04004C76.3338 7.50638 77.1817 7.99747 78.0137 8.51172L78.5371 7.66309C80.2402 8.71572 81.8778 9.86362 83.4414 11.1016L82.8223 11.8848C83.5906 12.4931 84.3411 13.1233 85.0723 13.7744L85.7344 13.0303C87.2263 14.3589 88.6401 15.7727 89.9688 17.2646L89.2256 17.9277C89.8767 18.6589 90.5069 19.4094 91.1152 20.1777L91.8975 19.5576C93.1354 21.1212 94.2833 22.7589 95.3359 24.4619L94.4883 24.9863C95.0025 25.8183 95.4936 26.6662 95.96 27.5293L96.8379 27.0537C97.7835 28.8038 98.6306 30.6149 99.3721 32.4795L98.4443 32.8496C98.8051 33.7569 99.1404 34.6771 99.4492 35.6094L100.397 35.2949C101.021 37.1785 101.54 39.1101 101.945 41.083H101.946L100.967 41.2842C101.163 42.2387 101.331 43.2033 101.473 44.1768L102.461 44.0332C102.745 45.9881 102.92 47.9784 102.978 49.998L101.979 50.0273C101.993 50.5165 102 51.0074 102 51.5C102 51.9926 101.993 52.4835 101.979 52.9727L102.978 53.001C102.92 55.0206 102.745 57.0109 102.461 58.9658L101.473 58.8232C101.331 59.7967 101.163 60.7613 100.967 61.7158L101.945 61.916C101.54 63.889 101.021 65.8205 100.397 67.7041L99.4492 67.3906C99.1404 68.3229 98.8051 69.2431 98.4443 70.1504L99.3721 70.5195C98.6306 72.3842 97.7835 74.1952 96.8379 75.9453L95.96 75.4707C95.4936 76.3338 95.0025 77.1817 94.4883 78.0137L95.3359 78.5371C94.2833 80.2402 93.1354 81.8778 91.8975 83.4414L91.1152 82.8223C90.5069 83.5906 89.8767 84.3411 89.2256 85.0723L89.9697 85.7344C88.6409 87.2265 87.2265 88.6399 85.7344 89.9688L85.0723 89.2256C84.3411 89.8767 83.5906 90.5069 82.8223 91.1152L83.4414 91.8975C81.8778 93.1354 80.2402 94.2833 78.5371 95.3359L78.0137 94.4883C77.1817 95.0025 76.3338 95.4936 75.4707 95.96L75.9453 96.8379C74.1952 97.7835 72.3842 98.6306 70.5195 99.3721L70.1504 98.4443C69.2431 98.8051 68.3229 99.1404 67.3906 99.4492L67.7041 100.397C65.8205 101.021 63.889 101.54 61.916 101.945L61.7158 100.967C60.7613 101.163 59.7967 101.331 58.8232 101.473L58.9658 102.461C57.0109 102.745 55.0206 102.92 53.001 102.978L52.9727 101.979C52.4835 101.993 51.9926 102 51.5 102C51.0074 102 50.5165 101.993 50.0273 101.979L49.998 102.978C47.9784 102.92 45.9881 102.745 44.0332 102.461L44.1768 101.473C43.2033 101.331 42.2387 101.163 41.2842 100.967L41.083 101.945C39.1101 101.54 37.1785 101.021 35.2949 100.397L35.6094 99.4492C34.6771 99.1404 33.7569 98.8051 32.8496 98.4443L32.4795 99.3721C30.6149 98.6306 28.8038 97.7835 27.0537 96.8379L27.5293 95.96C26.6662 95.4936 25.8183 95.0025 24.9863 94.4883L24.4619 95.3359C22.7589 94.2833 21.1212 93.1355 19.5576 91.8975L20.1777 91.1152C19.4094 90.5069 18.6589 89.8767 17.9277 89.2256L17.2646 89.9688C15.7726 88.6399 14.358 87.2265 13.0293 85.7344L13.7744 85.0723C13.1233 84.3411 12.4931 83.5906 11.8848 82.8223L11.1016 83.4414C9.86362 81.8778 8.71572 80.2402 7.66309 78.5371L8.51172 78.0137C7.99747 77.1817 7.50638 76.3338 7.04004 75.4707L6.16113 75.9453C5.21553 74.1952 4.3684 72.3842 3.62695 70.5195L4.55566 70.1504C4.19488 69.2431 3.85957 68.3229 3.55078 67.3906L2.60156 67.7041C1.9777 65.8205 1.45895 63.889 1.05371 61.916L2.0332 61.7158C1.83713 60.7613 1.66873 59.7967 1.52734 58.8232L0.538086 58.9658C0.254197 57.0109 0.0792867 55.0206 0.0214844 53.001L1.02148 52.9727C1.00748 52.4835 1 51.9926 1 51.5C1 51.0074 1.00748 50.5165 1.02148 50.0273L0.0214844 49.998C0.0793251 47.9785 0.25416 45.9881 0.538086 44.0332L1.52734 44.1768C1.66873 43.2033 1.83712 42.2387 2.0332 41.2842L1.05371 41.083C1.45898 39.1101 1.97767 37.1785 2.60156 35.2949L3.55078 35.6094C3.85957 34.6771 4.19488 33.7569 4.55566 32.8496L3.62695 32.4795C4.36842 30.6149 5.21551 28.8038 6.16113 27.0537L7.04004 27.5293C7.50639 26.6662 7.99747 25.8183 8.51172 24.9863L7.66309 24.4619C8.71573 22.7589 9.86361 21.1212 11.1016 19.5576L11.8848 20.1777C12.4931 19.4094 13.1233 18.6589 13.7744 17.9277L13.0303 17.2646C14.3589 15.7728 15.7728 14.3589 17.2646 13.0303L17.9277 13.7744C18.6589 13.1233 19.4094 12.4931 20.1777 11.8848L19.5576 11.1016C21.1212 9.86361 22.7589 8.71573 24.4619 7.66309L24.9863 8.51172C25.8183 7.99747 26.6662 7.50639 27.5293 7.04004L27.0537 6.16113C28.8038 5.21551 30.6149 4.36842 32.4795 3.62695L32.8496 4.55566C33.7569 4.19488 34.6771 3.85957 35.6094 3.55078L35.2949 2.60156C37.1785 1.97767 39.1101 1.45898 41.083 1.05371L41.2842 2.0332C42.2387 1.83713 43.2033 1.66873 44.1768 1.52734L44.0332 0.538086C45.9881 0.25416 47.9785 0.0793247 49.998 0.0214844L50.0273 1.02148C50.5165 1.00748 51.0074 1 51.5 1C51.9926 1 52.4835 1.00748 52.9727 1.02148L53.001 0.0214844Z" stroke="#FF9E10" stroke-width="2" stroke-dasharray="3 6"/>
<ellipse cx="51.5" cy="51.5" rx="42.5" ry="42.5" fill="#FF9E10"/>
<path d="M56.8261 33.3643H62.3359C62.8942 33.3643 63.6343 34.1159 63.7209 34.6601L63.7122 45.1134L46.828 50.1672L30.0087 45.1134L30 34.6601C30.0736 34.09 30.8267 33.3643 31.385 33.3643H36.8948V31.4032C36.8948 29.7272 38.9031 28.2154 40.4829 28.0988C44.7072 27.7921 49.3253 28.3147 53.5929 28.129C55.0039 28.1981 56.8261 30.021 56.8261 31.4032V33.3643ZM53.7617 33.4593V31.6883C53.7617 31.5069 53.2813 31.1052 53.0432 31.1613C49.0916 31.4334 44.6682 30.8071 40.7685 31.1613C40.4958 31.1872 39.9592 31.3773 39.9592 31.6926V33.4636H53.7574L53.7617 33.4593ZM50.693 42.6383V44.4093C50.693 44.7678 51.3509 45.5021 51.7188 45.5842C53.7055 46.0421 53.9219 44.1112 53.7574 42.6383C54.5798 42.6124 55.8046 42.7852 56.4062 42.1286C57.1637 41.3036 56.8304 39.9688 55.7743 39.6189L38.1803 39.5757C36.172 40.0379 36.6567 42.6728 38.665 42.6383H50.693Z" fill="white"/>
<path d="M65.1448 54.1455C73.0914 53.4976 78.6401 61.9466 74.7015 68.9442C71.2909 75.0045 62.9331 75.7431 58.4059 70.4733C53.1774 64.3871 57.2199 54.7934 65.1448 54.1455ZM65.7162 59.0179C65.1838 59.1129 64.6168 59.6831 64.5173 60.2144C64.3831 60.9531 64.4177 63.3115 64.4913 64.1193C64.5216 64.4562 64.5865 64.7024 64.7813 64.9745C64.9934 65.2726 67.0795 66.698 67.4734 66.8751C68.8108 67.4842 70.1872 66.3957 69.6462 64.9918C69.3432 64.197 68.1616 63.804 67.573 63.2338C67.4691 62.3224 67.6595 61.277 67.5556 60.3786C67.4518 59.4801 66.6034 58.8538 65.7075 59.0136L65.7162 59.0179Z" fill="white"/>
<path d="M62.193 48.7634V51.584C60.9422 52.0764 59.7866 52.5646 58.6742 53.3334C55.519 55.5105 53.6319 58.7674 53.0303 62.5427L33.3024 62.534C32.7874 62.4606 32.268 62.4087 31.9087 61.9854C31.8265 61.8904 31.5278 61.3245 31.5278 61.2468V48.7634L45.2742 52.8885L45.391 53.0138C45.2222 54.2578 45.0837 56.2837 46.8107 56.3269C48.6198 56.3701 48.5203 54.3053 48.3255 53.0138L62.193 48.7634Z" fill="white"/>
</svg>
