<svg width="57" height="59" viewBox="0 0 57 59" fill="none" xmlns="http://www.w3.org/2000/svg">
<path d="M32.8139 36.3969V47.1008C35.6478 46.7179 37.9532 48.5832 37.6035 51.5018C39.8355 51.37 41.662 52.6378 41.8998 54.9051C41.9797 55.6709 41.9988 57.2264 41.9142 57.9827C41.8424 58.615 41.5981 59.0059 40.902 58.9995H16.1044C15.7356 59.009 15.4083 58.8819 15.2375 58.5515C15.0076 58.1066 15.0379 55.7488 15.0874 55.1244C15.2774 52.7189 17.0176 51.3843 19.4029 51.5018C19.0708 48.5069 21.2788 46.729 24.1925 47.1008V36.3969H3.29687C1.90149 36.3969 -0.0207551 34.3091 0.00478965 32.8887L0 3.62888C0.159655 1.67145 1.79133 0.0810302 3.77105 0H53.3535C55.2502 0.155705 56.7765 1.63967 57 3.51449V32.8903C56.992 34.2472 55.0171 36.3984 53.7079 36.3984H32.8123L32.8139 36.3969ZM3.80458 1.81762C2.49221 2.10043 1.90788 2.92344 1.79612 4.2231V32.1801C1.93023 33.7197 2.69817 34.4855 4.25161 34.619C10.7112 35.1703 17.9548 34.1916 24.4975 34.6205H32.5089C39.0516 34.1916 46.2951 35.1719 52.7548 34.619C54.3034 34.4871 55.0762 33.7229 55.2103 32.1801V4.2231C55.0857 2.78204 54.3561 1.9336 52.8761 1.78425L3.80458 1.81762ZM30.898 36.3969H26.1084V47.1008H30.898V36.3969ZM35.8074 51.5018C35.8872 50.3579 35.4961 49.3267 34.3035 49.0121C30.6585 49.26 26.5139 48.6562 22.9296 48.9978C21.5933 49.1249 21.108 50.3039 21.199 51.5018H35.8074ZM39.9983 57.2105V54.7716C39.9983 54.6827 39.6647 54.1139 39.5721 54.0058C39.0021 53.3433 38.2246 53.3751 37.4183 53.3989C31.8192 53.5641 26.1515 53.6229 20.5364 53.5276C19.5386 53.5101 18.413 53.0589 17.5493 53.8803C17.4136 54.009 17.0096 54.635 17.0096 54.7716V57.2105H39.9999H39.9983Z" fill="#070709"/>
<path d="M20.72 8.44938H10.7815V17.1307H20.5396C20.9834 17.1307 21.1702 17.9029 21.2022 18.2556C21.4991 21.4237 20.9675 25.0383 21.2022 28.2557C21.1415 28.9071 21.0186 29.3011 20.3017 29.3838C18.2677 29.6189 15.8106 29.1899 13.7287 29.3965C13.2035 30.3657 12.8538 31.2173 11.8464 31.8083C6.93222 34.6936 3.31763 26.7543 8.43776 24.8556C10.7927 23.9818 12.9225 25.3895 13.7128 27.5963H19.2815V19.0341H9.7629C9.42762 19.0341 8.80497 18.4256 8.86245 18.0252C9.14344 14.7491 8.49683 10.8787 8.86564 7.67562C8.89438 7.42777 9.14982 6.66513 9.40368 6.66513H20.5987C20.4662 6.0439 19.323 5.55931 19.2831 4.93172C19.2496 4.42488 19.8834 3.85608 20.3911 3.94824C21.0553 4.06899 22.7875 6.47447 23.5954 6.84149C23.9115 7.19739 23.9403 7.84245 23.6465 8.2047C22.8402 8.58284 21.3028 10.9597 20.6354 11.1599C20.1389 11.3077 19.5833 11.1726 19.3725 10.6769C18.9718 9.73792 20.3001 9.13576 20.72 8.44938ZM9.67828 26.4317C7.11742 26.6351 7.24674 30.5786 9.86348 30.5245C12.6606 30.4673 12.378 26.2172 9.67828 26.4317Z" fill="#070709"/>
<path d="M27.7528 4.19609C28.8975 4.00702 32.1274 4.06263 33.3567 4.16273C34.0384 4.21834 34.5238 4.28824 34.6132 5.05565C34.7696 6.42204 34.7441 9.61558 34.6164 11.0106C34.5445 11.8002 34.246 11.9496 33.478 12.0211C32.4291 12.118 28.4457 12.1625 27.5692 11.9353C26.9849 11.7827 26.8747 11.5905 26.822 11.0122C26.6464 9.08968 26.9577 6.90028 26.8348 4.9492C26.8731 4.47573 27.3329 4.266 27.7544 4.19768L27.7528 4.19609ZM32.8139 6.07091H28.7427V10.1145H32.8139V6.07091Z" fill="#070709"/>
<path d="M27.6331 24.4139C28.7139 24.2217 32.3014 24.2725 33.4764 24.3806C34.123 24.4393 34.5286 24.5585 34.6116 25.2751C34.7696 26.6319 34.7425 29.8429 34.6148 31.23C34.5621 31.8036 34.4567 32.0451 33.8325 32.1181C32.4515 32.2802 29.1322 32.25 27.7177 32.1213C27.0392 32.0594 26.8827 31.9148 26.8204 31.23C26.6927 29.8414 26.6656 26.6351 26.8236 25.2751C26.8843 24.7571 27.1174 24.5061 27.6331 24.4139ZM32.8139 26.2887H28.7427V30.3323H32.8139V26.2887Z" fill="#070709"/>
<path d="M27.5101 14.3026C29.4579 14.425 31.816 14.05 33.7143 14.274C34.147 14.3249 34.5845 14.5759 34.6164 15.043C34.412 16.9687 34.867 19.3757 34.6164 21.2394C34.5621 21.6398 34.2476 21.9576 33.8373 22.0132C31.9597 22.2611 29.5378 21.8098 27.598 22.0132C27.127 21.9814 26.8731 21.5461 26.8236 21.1171C26.6767 19.873 26.6783 16.4126 26.8236 15.1654C26.8747 14.7252 27.0711 14.4329 27.5101 14.301V14.3026ZM32.8139 16.179H28.7427V20.2226H32.6351L32.8139 20.0446V16.179Z" fill="#070709"/>
<path d="M38.4066 15.016L49.8698 14.9969C51.0082 15.1765 50.9475 16.813 49.7597 16.8956C46.2664 16.6064 42.1601 17.2737 38.7403 16.8924C37.5093 16.7542 37.2826 15.4641 38.4066 15.0144V15.016Z" fill="#070709"/>
<path d="M38.4066 25.005L49.9896 24.9875C51.1359 25.1654 50.8102 27.0593 49.517 26.8814C46.1036 26.6367 42.2192 27.215 38.8632 26.8814C37.5381 26.7495 37.2108 25.5738 38.4082 25.005H38.4066Z" fill="#070709"/>
<path d="M50.5036 6.63494C50.3472 6.80018 49.8794 6.88757 49.6431 6.90981C46.1435 7.2244 42.1697 6.66036 38.6173 6.90663C37.372 6.76046 37.2698 5.16051 38.8616 5.00322C42.2575 4.66797 46.1834 5.24948 49.6367 5.00322C50.5068 4.89518 51.0257 6.08521 50.5036 6.63812V6.63494Z" fill="#070709"/>
<path d="M38.4066 9.30735L49.8698 9.28828C51.088 9.58063 50.9171 11.152 49.6367 11.1838C46.1834 10.9025 42.1202 11.5603 38.7403 11.1838C37.5093 11.0455 37.2826 9.7554 38.4066 9.30576V9.30735Z" fill="#070709"/>
<path d="M38.2868 19.2963L49.9896 19.2788C50.9028 19.3948 50.9475 20.9725 50.0039 21.0615L38.3906 21.0472C37.4742 20.9042 37.5045 19.6443 38.2884 19.2947L38.2868 19.2963Z" fill="#070709"/>
<path d="M38.2868 29.2868L49.8778 29.2598C50.9411 29.3393 50.9906 30.9202 49.8778 31.0489C46.3686 31.454 42.0898 30.739 38.4976 31.0489C37.5301 31.0822 37.4151 29.487 38.2853 29.2884L38.2868 29.2868Z" fill="#070709"/>
<path d="M13.1412 20.2496C14.1007 20.0303 14.3849 20.9058 15.0315 21.411C15.5472 20.8978 16.5418 19.5855 17.3034 20.4657C17.9819 21.2506 16.925 22.1324 16.4173 22.6789C16.3726 22.9347 18.2661 24.1645 17.2427 25.0367C16.3726 25.7787 15.5919 24.5315 15.0315 24.0326C14.5158 24.5458 13.5212 25.8582 12.7596 24.978C12.0731 24.1835 13.1268 23.297 13.6457 22.7647C13.6808 22.5613 12.6479 21.7224 12.5776 21.3491C12.4914 20.8963 12.6399 20.364 13.1412 20.2496Z" fill="#070709"/>
<path d="M13.2641 10.1351C14.0512 9.97307 14.5062 10.8866 15.0331 11.3013C16.751 8.90855 18.7547 10.7389 16.4189 12.5692C16.363 12.8822 18.3188 13.9531 17.19 14.873C16.28 15.615 15.6558 14.4536 15.0331 13.9229C13.3152 16.3157 11.3116 14.4853 13.6473 12.655C13.708 12.3071 12.1513 11.6604 12.6399 10.5911C12.7133 10.4307 13.0837 10.1717 13.2641 10.1351Z" fill="#070709"/>
</svg>
