<svg width="44" height="50" viewBox="0 0 44 50" fill="none" xmlns="http://www.w3.org/2000/svg">
<path d="M32.3274 0C33.0345 0.171866 33.7365 0.291651 34.4179 0.567679C41.6789 3.51935 38.4677 13.0905 39.1761 19.1904C38.5192 21.6056 35.5089 21.2281 35.3131 18.7035C35.0311 15.0578 35.7163 10.7481 35.3067 7.18713C35.1083 5.46196 33.4119 3.96724 31.7052 3.90214L7.40552 3.90605C5.6782 4.1352 4.36177 5.36951 3.98952 7.08687L3.97664 42.7256C4.18273 44.2151 5.26343 45.5263 6.70222 45.9221C13.4119 46.3257 20.2129 45.9507 26.9535 46.1135C28.9938 46.6499 28.9887 49.3347 27.0243 49.9961H6.96886C3.47944 49.5143 0.661109 46.8491 0.134283 43.2959C-0.0447609 31.113 -0.0447609 18.8844 0.134283 6.70017C0.595417 3.28108 3.5593 0.33592 6.96886 0H32.3274Z" fill="#FF9E10"/>
<path d="M37.8223 49.9974H36.9542C35.5798 49.513 35.3157 48.3269 35.411 46.9715C32.9701 46.9038 30.7276 44.6682 30.8203 42.1541C30.904 39.8872 33.922 39.5383 34.5506 41.4471C34.7322 41.9965 34.6137 42.8676 35.384 43.0446C35.8387 43.1488 38.3118 43.1267 38.8116 43.042C39.2856 42.9613 39.8678 42.585 39.994 42.0916C40.1203 41.5981 40.1061 40.1971 39.8472 39.7935C39.1349 38.6816 37.5325 39.149 36.4196 39.0657C30.2085 38.6022 29.4601 29.5193 35.4007 28.0181C35.4085 26.8905 35.3041 25.6328 36.4029 24.9805C37.3445 24.4206 38.563 24.7448 39.0769 25.7304C39.4466 26.4387 39.1452 27.0181 39.2676 27.6861C39.3333 28.048 39.918 28.0376 40.231 28.1756C42.1439 29.0206 43.5633 30.9268 43.1975 33.1311C42.9373 34.7026 40.5994 35.0854 39.7055 33.687C39.2251 32.9358 39.7326 31.8877 38.4471 31.7392C37.4011 31.6181 35.3853 31.5491 35.2153 32.9579C34.8739 35.7885 37.3122 35.0047 39.0241 35.1583C44.7934 35.6791 45.7956 44.4313 40.7115 46.5314C40.2555 46.7202 39.7673 46.7879 39.3101 46.9676C39.3268 48.3777 39.2985 49.461 37.821 50L37.8223 49.9974Z" fill="#FF9E10"/>
<path d="M17.0674 9.10499L29.956 9.09067C32.1174 9.53336 32.1277 12.5306 29.956 12.9798H17.1486C15.0168 12.5553 14.9588 9.61929 17.0661 9.10499H17.0674Z" fill="#FF9E10"/>
<path d="M17.0674 16.9171L29.956 16.9028C32.1174 17.3455 32.1277 20.3427 29.956 20.7919H17.1486C15.0168 20.3674 14.9588 17.4314 17.0661 16.9171H17.0674Z" fill="#FF9E10"/>
<path d="M17.0674 24.7292L29.956 24.7149C32.1174 25.1575 32.1277 28.1548 29.956 28.604H17.1486C15.0168 28.1795 14.9588 25.2435 17.0661 24.7292H17.0674Z" fill="#FF9E10"/>
<path d="M17.0674 32.5413H26.1819C28.2815 33.0647 28.2248 35.9825 26.0995 36.4161L17.0674 36.4017C15.0013 35.9018 15.0026 33.0412 17.0674 32.5426V32.5413Z" fill="#FF9E10"/>
<path d="M9.35439 9.10499C11.0894 8.81074 12.9237 9.4344 12.5385 11.5489C12.2552 13.11 9.75627 13.3769 8.6717 12.679C7.23549 11.7533 7.67859 9.38883 9.35439 9.10499Z" fill="#FF9E10"/>
<path d="M9.35439 16.9171C11.0894 16.6228 12.9237 17.2465 12.5385 19.361C12.2552 20.9221 9.75627 21.189 8.6717 20.4911C7.23549 19.5654 7.67859 17.2009 9.35439 16.9171Z" fill="#FF9E10"/>
<path d="M9.35439 24.7292C11.0894 24.4349 12.9237 25.0586 12.5385 27.1731C12.2552 28.7342 9.75627 29.0011 8.6717 28.3032C7.23549 27.3775 7.67859 25.013 9.35439 24.7292Z" fill="#FF9E10"/>
<path d="M9.35439 32.5413C11.0894 32.247 12.9237 32.8707 12.5385 34.9852C12.2552 36.5463 9.75627 36.8132 8.6717 36.1153C7.23549 35.1896 7.67859 32.8251 9.35439 32.5413Z" fill="#FF9E10"/>
</svg>
