<svg width="244" height="244" viewBox="0 0 244 244" fill="none" xmlns="http://www.w3.org/2000/svg">
<ellipse cx="122" cy="122" rx="120" ry="120" stroke="#FF9E10" stroke-width="4" stroke-linecap="round" stroke-dasharray="10 20"/>
<ellipse cx="122" cy="122" rx="99.0291" ry="99.0292" fill="#FF9E10"/>
<path d="M120.363 79.0667C125.691 78.3312 128.818 83.8638 132.694 86.5805C136.318 86.796 141.911 84.8965 145.216 86.3973C149.985 88.5618 149.367 95.6199 150.974 99.8796C155.863 103.669 164.242 105.021 161.437 113.176C160.502 115.895 158.824 118.59 157.967 121.381C158.888 125.527 163.034 130.227 161.72 134.593C160.477 138.722 154.077 140.517 150.969 143.053C149.635 146.528 149.773 152.645 147.094 155.28C143.447 158.868 137.194 156.09 132.691 156.357L125.73 162.511C119.244 167.14 114.982 159.782 110.329 156.357C109.977 156.268 109.62 156.305 109.263 156.32C106.042 156.454 101.303 157.766 98.3061 156.776C93.0329 155.035 93.6751 147.395 92.0486 143.051C87.2577 139.272 78.7094 137.843 81.5834 129.759C82.5505 127.037 84.1745 124.345 85.053 121.554C84.3197 118.444 82.0411 115.244 81.266 112.195C79.3959 104.838 87.74 103.386 92.0462 99.8771C92.9837 96.982 93.2814 93.7724 94.1574 90.8798C96.5098 83.1183 104.443 86.6672 110.329 86.5756L117.841 80.0499C118.545 79.6066 119.537 79.1757 120.359 79.0617L120.363 79.0667ZM136.382 108.538C135.809 108.644 135.287 109.035 134.862 109.417L117.278 127.503C117.051 127.607 116.51 127.139 116.296 126.998C113.643 125.244 110.139 121.946 107.504 120.645C104.138 118.986 101.527 122.998 104.027 125.442L116.074 134.081C119.057 135.606 121.043 132.057 122.797 130.272C127.595 125.381 132.743 120.482 137.357 115.452C137.945 114.811 139.749 112.933 139.889 112.255C140.364 109.944 138.715 108.107 136.382 108.54V108.538Z" fill="white"/>
</svg>
