<svg width="80" height="80" viewBox="0 0 80 80" fill="none" xmlns="http://www.w3.org/2000/svg">
<circle cx="40" cy="40" r="40" fill="#05AC8F"/>
<path d="M24.577 60C22.5421 59.5721 21.5108 57.2175 22.8671 55.5143C23.1772 55.126 24.1288 54.4745 24.6173 54.4745H52.0043V60H24.577Z" fill="white"/>
<path d="M52.1636 19V52.0728H24.1405C23.9695 52.0728 23.2887 52.2301 23.0827 52.2889C22.2437 52.5275 21.6086 53.0795 21 53.6743V23.4439C21 21.5172 23.4098 19 25.3331 19H52.1636ZM33.6405 36.2965L30.859 29.9291C30.4883 29.9109 28.8729 29.7878 28.6712 29.9686L25.93 36.2954H28.394L28.8443 35.2673L30.7878 35.3016L31.2158 36.2954H33.6405V36.2965ZM47.2347 29.8905H41.6695V31.8921H43.9752L41.5899 34.7346V36.2965H47.3929V34.2949H44.8493L47.2347 31.4524V29.8905ZM38.8073 32.6934H35.8655V34.5356H38.8073V32.6934ZM41.6695 41.0218H32.0899L31.9709 41.1416V43.5037H41.6695V41.0218Z" fill="white"/>
<path d="M59 26.6073H54.6276V33.6541H59V26.6073Z" fill="white"/>
<path d="M59 36.0569H54.6276V43.1036H59V36.0569Z" fill="white"/>
<path d="M29.9828 33.4134H29.507L29.7459 32.6945L29.9828 33.4134Z" fill="white"/>
</svg>
