<svg width="46" height="45" viewBox="0 0 46 45" fill="none" xmlns="http://www.w3.org/2000/svg">
<path d="M45.9988 37.794V38.4092C45.8682 38.5864 45.8371 38.7543 45.6874 38.9386C44.0726 40.9192 41.5031 42.7166 39.8033 44.6948L39.2619 45H38.633L38.0916 44.6948L30.2334 37.0051L26.1031 40.9603C25.4563 41.3418 24.7315 41.0718 24.3087 40.5142C21.6578 32.7892 18.9062 25.0796 16.4601 17.2972C16.6494 16.399 17.5131 15.8578 18.3983 16.2406L41.4145 23.7811C41.9835 24.1956 42.2602 24.9047 41.8709 25.5374L37.8268 29.5772L45.6885 37.2633L46 37.7928L45.9988 37.794ZM38.0928 25.4048L20.0358 19.6052L25.9654 37.268C26.1019 37.3033 26.1139 37.2328 26.1906 37.1812C27.21 36.4909 28.2581 34.8637 29.2943 34.1534C29.8717 33.7578 30.5161 33.7003 31.0875 34.1452L38.9457 41.8349L42.7621 38.1016L34.9004 30.4142C34.4452 29.8554 34.5039 29.2238 34.9088 28.6603C35.6347 27.6471 37.2974 26.621 38.0041 25.6243C38.0568 25.5504 38.1287 25.5374 38.0928 25.4036V25.4048Z" fill="black"/>
<path d="M0 17.4944V16.7912C0.281503 16.2863 0.518684 15.9705 1.12841 15.8297C3.77454 16.0527 6.99206 15.5138 9.56991 15.8226C11.1691 16.014 11.1691 18.2716 9.56991 18.4629C6.99206 18.7717 3.77454 18.2328 1.12841 18.4559C0.517487 18.315 0.281503 17.9992 0 17.4944Z" fill="black"/>
<path d="M11.3835 21.4684C12.5526 21.2089 13.4175 22.1657 13.0318 23.2552C11.2074 25.4118 8.99612 27.2855 7.00044 29.3072C5.62647 30.318 4.04885 28.7824 5.08383 27.4323C7.01362 25.7617 8.7781 23.4794 10.7343 21.8863C10.8972 21.7537 11.1871 21.5118 11.3835 21.4672V21.4684Z" fill="black"/>
<path d="M5.72469 4.68488C6.25656 4.57688 6.63628 4.70954 7.04956 5.0183C8.99732 6.47171 10.8193 9.03103 12.7551 10.5983C13.8488 11.9742 12.3059 13.585 10.8277 12.4838C8.88112 11.0327 7.05794 8.46986 5.12216 6.90374C4.43577 6.23104 4.75321 4.88212 5.72469 4.68606V4.68488Z" fill="black"/>
<path d="M28.6355 4.68488C29.7699 4.48061 30.5676 5.42098 30.1915 6.46936C28.3671 8.626 26.1558 10.4997 24.1602 12.5213C22.7922 13.5181 21.2038 12.0282 22.2435 10.6476C23.6606 8.7657 26.3463 6.97653 27.894 5.10165C28.1012 4.92086 28.3563 4.73537 28.6355 4.68488Z" fill="black"/>
<path d="M17.2244 0.0276317C18.0126 -0.130858 18.7709 0.410355 18.8691 1.19224C19.1841 3.71399 18.6343 6.86148 18.8619 9.45014C18.5564 10.9482 16.3619 10.9 16.1703 9.37031C15.8552 6.84856 16.4062 3.70107 16.1774 1.11241C16.3056 0.599369 16.677 0.139162 17.2256 0.0288057L17.2244 0.0276317Z" fill="black"/>
</svg>
