<svg width="103" height="103" viewBox="0 0 103 103" fill="none" xmlns="http://www.w3.org/2000/svg">
<path d="M53.001 0.0214844C55.0206 0.0792871 57.0109 0.254196 58.9658 0.538086L58.8232 1.52734C59.7967 1.66873 60.7613 1.83713 61.7158 2.0332L61.916 1.05371C63.889 1.45895 65.8205 1.9777 67.7041 2.60156L67.3906 3.55078C68.3229 3.85957 69.2431 4.19488 70.1504 4.55566L70.5195 3.62695C72.3842 4.3684 74.1952 5.21553 75.9453 6.16113L75.4707 7.04004C76.3338 7.50638 77.1817 7.99747 78.0137 8.51172L78.5371 7.66309C80.2402 8.71572 81.8778 9.86362 83.4414 11.1016L82.8223 11.8848C83.5906 12.4931 84.3411 13.1233 85.0723 13.7744L85.7344 13.0303C87.2263 14.3589 88.6401 15.7727 89.9688 17.2646L89.2256 17.9277C89.8767 18.6589 90.5069 19.4094 91.1152 20.1777L91.8975 19.5576C93.1354 21.1212 94.2833 22.7589 95.3359 24.4619L94.4883 24.9863C95.0025 25.8183 95.4936 26.6662 95.96 27.5293L96.8379 27.0537C97.7835 28.8038 98.6306 30.6149 99.3721 32.4795L98.4443 32.8496C98.8051 33.7569 99.1404 34.6771 99.4492 35.6094L100.397 35.2949C101.021 37.1785 101.54 39.1101 101.945 41.083H101.946L100.967 41.2842C101.163 42.2387 101.331 43.2033 101.473 44.1768L102.461 44.0332C102.745 45.9881 102.92 47.9784 102.978 49.998L101.979 50.0273C101.993 50.5165 102 51.0074 102 51.5C102 51.9926 101.993 52.4835 101.979 52.9727L102.978 53.001C102.92 55.0206 102.745 57.0109 102.461 58.9658L101.473 58.8232C101.331 59.7967 101.163 60.7613 100.967 61.7158L101.945 61.916C101.54 63.889 101.021 65.8205 100.397 67.7041L99.4492 67.3906C99.1404 68.3229 98.8051 69.2431 98.4443 70.1504L99.3721 70.5195C98.6306 72.3842 97.7835 74.1952 96.8379 75.9453L95.96 75.4707C95.4936 76.3338 95.0025 77.1817 94.4883 78.0137L95.3359 78.5371C94.2833 80.2402 93.1354 81.8778 91.8975 83.4414L91.1152 82.8223C90.5069 83.5906 89.8767 84.3411 89.2256 85.0723L89.9697 85.7344C88.6409 87.2265 87.2265 88.6399 85.7344 89.9688L85.0723 89.2256C84.3411 89.8767 83.5906 90.5069 82.8223 91.1152L83.4414 91.8975C81.8778 93.1354 80.2402 94.2833 78.5371 95.3359L78.0137 94.4883C77.1817 95.0025 76.3338 95.4936 75.4707 95.96L75.9453 96.8379C74.1952 97.7835 72.3842 98.6306 70.5195 99.3721L70.1504 98.4443C69.2431 98.8051 68.3229 99.1404 67.3906 99.4492L67.7041 100.397C65.8205 101.021 63.889 101.54 61.916 101.945L61.7158 100.967C60.7613 101.163 59.7967 101.331 58.8232 101.473L58.9658 102.461C57.0109 102.745 55.0206 102.92 53.001 102.978L52.9727 101.979C52.4835 101.993 51.9926 102 51.5 102C51.0074 102 50.5165 101.993 50.0273 101.979L49.998 102.978C47.9784 102.92 45.9881 102.745 44.0332 102.461L44.1768 101.473C43.2033 101.331 42.2387 101.163 41.2842 100.967L41.083 101.945C39.1101 101.54 37.1785 101.021 35.2949 100.397L35.6094 99.4492C34.6771 99.1404 33.7569 98.8051 32.8496 98.4443L32.4795 99.3721C30.6149 98.6306 28.8038 97.7835 27.0537 96.8379L27.5293 95.96C26.6662 95.4936 25.8183 95.0025 24.9863 94.4883L24.4619 95.3359C22.7589 94.2833 21.1212 93.1355 19.5576 91.8975L20.1777 91.1152C19.4094 90.5069 18.6589 89.8767 17.9277 89.2256L17.2646 89.9688C15.7726 88.6399 14.358 87.2265 13.0293 85.7344L13.7744 85.0723C13.1233 84.3411 12.4931 83.5906 11.8848 82.8223L11.1016 83.4414C9.86362 81.8778 8.71572 80.2402 7.66309 78.5371L8.51172 78.0137C7.99747 77.1817 7.50638 76.3338 7.04004 75.4707L6.16113 75.9453C5.21553 74.1952 4.3684 72.3842 3.62695 70.5195L4.55566 70.1504C4.19488 69.2431 3.85957 68.3229 3.55078 67.3906L2.60156 67.7041C1.9777 65.8205 1.45895 63.889 1.05371 61.916L2.0332 61.7158C1.83713 60.7613 1.66873 59.7967 1.52734 58.8232L0.538086 58.9658C0.254197 57.0109 0.0792867 55.0206 0.0214844 53.001L1.02148 52.9727C1.00748 52.4835 1 51.9926 1 51.5C1 51.0074 1.00748 50.5165 1.02148 50.0273L0.0214844 49.998C0.0793251 47.9785 0.25416 45.9881 0.538086 44.0332L1.52734 44.1768C1.66873 43.2033 1.83712 42.2387 2.0332 41.2842L1.05371 41.083C1.45898 39.1101 1.97767 37.1785 2.60156 35.2949L3.55078 35.6094C3.85957 34.6771 4.19488 33.7569 4.55566 32.8496L3.62695 32.4795C4.36842 30.6149 5.21551 28.8038 6.16113 27.0537L7.04004 27.5293C7.50639 26.6662 7.99747 25.8183 8.51172 24.9863L7.66309 24.4619C8.71573 22.7589 9.86361 21.1212 11.1016 19.5576L11.8848 20.1777C12.4931 19.4094 13.1233 18.6589 13.7744 17.9277L13.0303 17.2646C14.3589 15.7728 15.7728 14.3589 17.2646 13.0303L17.9277 13.7744C18.6589 13.1233 19.4094 12.4931 20.1777 11.8848L19.5576 11.1016C21.1212 9.86361 22.7589 8.71573 24.4619 7.66309L24.9863 8.51172C25.8183 7.99747 26.6662 7.50639 27.5293 7.04004L27.0537 6.16113C28.8038 5.21551 30.6149 4.36842 32.4795 3.62695L32.8496 4.55566C33.7569 4.19488 34.6771 3.85957 35.6094 3.55078L35.2949 2.60156C37.1785 1.97767 39.1101 1.45898 41.083 1.05371L41.2842 2.0332C42.2387 1.83713 43.2033 1.66873 44.1768 1.52734L44.0332 0.538086C45.9881 0.25416 47.9785 0.0793247 49.998 0.0214844L50.0273 1.02148C50.5165 1.00748 51.0074 1 51.5 1C51.9926 1 52.4835 1.00748 52.9727 1.02148L53.001 0.0214844Z" stroke="#FF9E10" stroke-width="2" stroke-dasharray="3 6"/>
<ellipse cx="51.5" cy="51.5001" rx="42.5" ry="42.5" fill="#FF9E10"/>
<path d="M69.9852 49.421C74.5428 47.9352 77.628 53.7157 75.0804 57.2676C72.1355 60.1463 69.3541 63.1874 66.3858 66.0196C65.4275 66.925 64.8432 67.5982 63.3941 67.7143C60.4725 67.9697 57.3405 67.6447 54.4189 67.5982C53.2737 67.5982 51.8012 67.5054 50.7027 67.5982C49.5107 67.7143 48.8562 69.8269 48.0382 70.6162C48.2486 71.1966 48.6926 71.3591 48.7628 72.0555C48.9497 73.8663 46.6826 74.702 45.5607 73.2859C41.3302 68.225 36.6791 63.5124 32.4486 58.498C31.724 57.6391 30.9294 57.0122 31.4436 55.7586C31.7942 54.8533 32.8927 54.5747 33.7808 54.8997C34.2249 55.0854 34.8092 56.0604 35.1598 55.9908L41.9847 51.5567C37.1465 42.3404 42.6157 30.9187 52.8997 29.224C64.5393 27.274 73.8884 38.3939 69.9852 49.421ZM59.3506 50.8139C61.6411 48.0281 60.379 43.5476 56.7796 42.7119C55.8447 42.5029 54.7228 42.7583 54.2086 41.7833C53.5308 40.4832 54.7462 39.0671 56.1018 39.5779C57.2938 40.0422 56.803 41.319 57.4107 42.0851C58.182 43.0601 59.6544 42.9904 60.2855 41.8993C61.1269 40.4368 59.8648 38.1153 58.6728 37.1403C58.2988 36.8385 57.4808 36.5135 57.3172 36.3278C57.1536 36.1653 57.1068 35.817 56.9666 35.5849C56.3121 34.5867 54.8163 34.6099 54.1385 35.5849C53.9515 35.8635 53.9515 36.1885 53.8113 36.351C53.671 36.4903 52.9932 36.7224 52.7361 36.9081C49.1133 39.3225 50.2352 45.0101 54.4423 45.962C55.1201 46.1245 55.9382 45.962 56.4991 46.4263C57.9249 47.6102 56.2888 50.0942 54.6293 48.8174C53.7879 48.1674 54.2553 47.2852 53.6476 46.5191C52.6894 45.3119 50.7261 45.8691 50.5391 47.3548C50.4222 48.3067 50.8663 49.8621 51.5908 50.5353L59.374 50.8603L59.3506 50.8139ZM45.7009 67.9233C46.4489 66.6929 47.2435 65.2071 48.6225 64.5571C50.3988 63.6981 53.3204 64.2089 55.2837 64.2321C57.9716 64.2321 60.6595 64.2321 63.3239 64.1624L72.2991 55.1318C72.7899 54.5515 72.3692 53.0193 71.7381 52.7407C71.1071 52.4621 71.2473 52.8568 70.9902 53.0657C68.6763 54.9926 66.526 57.1748 64.2589 59.1016C63.4408 59.798 62.5059 60.2159 61.4308 60.3088C57.9249 60.5873 54.045 59.9141 50.4923 60.1927C48.3888 59.9838 48.0148 57.4765 49.9781 56.7337C52.2687 56.7337 54.5592 56.664 56.8497 56.7105C57.434 56.7105 58.0885 56.989 58.6962 56.7105C59.2805 56.1069 58.8364 54.3658 58.1118 54.1336C57.3873 53.9015 54.863 54.1336 53.8814 54.0872C51.1935 54.0175 48.2719 53.7389 45.5607 53.9711C42.8495 54.2032 39.9746 57.2444 37.5906 58.4516L37.427 58.6837L45.7243 67.9L45.7009 67.9233Z" fill="white"/>
<path d="M30.9527 35.7706C31.1631 34.4706 33.1264 33.8902 34.0146 34.9349C34.0847 35.0045 34.4587 35.6313 34.4587 35.6778V45.428C35.1365 44.9637 35.4871 44.128 36.3752 44.0119C37.9412 43.803 38.9696 45.4744 38.0581 46.7745L33.8977 51.1389C33.0563 51.7657 32.3317 51.7657 31.4903 51.1389C30.3217 49.6763 28.6622 48.3995 27.4936 46.937C26.325 45.4744 27.3767 43.7333 29.1297 44.0119C29.8776 44.128 30.3451 45.0334 30.9294 45.428V35.7706H30.9527Z" fill="white"/>
</svg>
