<svg width="32" height="16" viewBox="0 0 32 16" fill="none" xmlns="http://www.w3.org/2000/svg">
<path d="M32 8.25803C31.9057 8.51587 31.8222 8.6869 31.6569 8.90348C30.6576 10.2116 28.8494 11.7577 27.6547 12.9618C26.8633 13.7594 25.8281 15.0537 25.0016 15.7043C23.8896 16.5801 22.5414 15.3528 23.1132 14.0782L27.6873 9.28852H1.03618C0.476005 9.28937 -0.00986573 8.51501 0.000152224 7.9684C0.0101702 7.42179 0.506059 6.71102 1.03618 6.71102H27.6881L23.1141 1.9213C22.5422 0.64759 23.8905 -0.579707 25.0025 0.295215C25.8106 0.931209 26.819 2.19374 27.5929 2.97327C28.8059 4.19541 30.6434 5.76906 31.6569 7.09605C31.8222 7.31264 31.9057 7.48367 32 7.7415V8.25803Z" fill="#0F2A47"/>
</svg>
