<svg width="16" height="32" viewBox="0 0 16 32" fill="none" xmlns="http://www.w3.org/2000/svg">
<path d="M7.74197 32C7.48413 31.9057 7.3131 31.8222 7.09652 31.6569C5.78843 30.6576 4.24228 28.8494 3.03819 27.6547C2.24062 26.8633 0.946283 25.8281 0.295678 25.0016C-0.580102 23.8896 0.647194 22.5414 1.92176 23.1132L6.71148 27.6873L6.71148 1.03618C6.71063 0.476005 7.48499 -0.0098661 8.0316 0.000151876C8.57821 0.0101699 9.28898 0.506059 9.28898 1.03618L9.28898 27.6881L14.0787 23.1141C15.3524 22.5422 16.5797 23.8905 15.7048 25.0025C15.0688 25.8106 13.8063 26.819 13.0267 27.5929C11.8046 28.8059 10.2309 30.6434 8.90395 31.6569C8.68736 31.8222 8.51633 31.9057 8.2585 32L7.74197 32Z" fill="#0F2A47"/>
</svg>
