<svg width="103" height="103" viewBox="0 0 103 103" fill="none" xmlns="http://www.w3.org/2000/svg">
<path d="M53.001 0.0214844C55.0206 0.0792871 57.0109 0.254196 58.9658 0.538086L58.8232 1.52734C59.7967 1.66873 60.7613 1.83713 61.7158 2.0332L61.916 1.05371C63.889 1.45895 65.8205 1.9777 67.7041 2.60156L67.3906 3.55078C68.3229 3.85957 69.2431 4.19488 70.1504 4.55566L70.5195 3.62695C72.3842 4.3684 74.1952 5.21553 75.9453 6.16113L75.4707 7.04004C76.3338 7.50638 77.1817 7.99747 78.0137 8.51172L78.5371 7.66309C80.2402 8.71572 81.8778 9.86362 83.4414 11.1016L82.8223 11.8848C83.5906 12.4931 84.3411 13.1233 85.0723 13.7744L85.7344 13.0303C87.2263 14.3589 88.6401 15.7727 89.9688 17.2646L89.2256 17.9277C89.8767 18.6589 90.5069 19.4094 91.1152 20.1777L91.8975 19.5576C93.1354 21.1212 94.2833 22.7589 95.3359 24.4619L94.4883 24.9863C95.0025 25.8183 95.4936 26.6662 95.96 27.5293L96.8379 27.0537C97.7835 28.8038 98.6306 30.6149 99.3721 32.4795L98.4443 32.8496C98.8051 33.7569 99.1404 34.6771 99.4492 35.6094L100.397 35.2949C101.021 37.1785 101.54 39.1101 101.945 41.083H101.946L100.967 41.2842C101.163 42.2387 101.331 43.2033 101.473 44.1768L102.461 44.0332C102.745 45.9881 102.92 47.9784 102.978 49.998L101.979 50.0273C101.993 50.5165 102 51.0074 102 51.5C102 51.9926 101.993 52.4835 101.979 52.9727L102.978 53.001C102.92 55.0206 102.745 57.0109 102.461 58.9658L101.473 58.8232C101.331 59.7967 101.163 60.7613 100.967 61.7158L101.945 61.916C101.54 63.889 101.021 65.8205 100.397 67.7041L99.4492 67.3906C99.1404 68.3229 98.8051 69.2431 98.4443 70.1504L99.3721 70.5195C98.6306 72.3842 97.7835 74.1952 96.8379 75.9453L95.96 75.4707C95.4936 76.3338 95.0025 77.1817 94.4883 78.0137L95.3359 78.5371C94.2833 80.2402 93.1354 81.8778 91.8975 83.4414L91.1152 82.8223C90.5069 83.5906 89.8767 84.3411 89.2256 85.0723L89.9697 85.7344C88.6409 87.2265 87.2265 88.6399 85.7344 89.9688L85.0723 89.2256C84.3411 89.8767 83.5906 90.5069 82.8223 91.1152L83.4414 91.8975C81.8778 93.1354 80.2402 94.2833 78.5371 95.3359L78.0137 94.4883C77.1817 95.0025 76.3338 95.4936 75.4707 95.96L75.9453 96.8379C74.1952 97.7835 72.3842 98.6306 70.5195 99.3721L70.1504 98.4443C69.2431 98.8051 68.3229 99.1404 67.3906 99.4492L67.7041 100.397C65.8205 101.021 63.889 101.54 61.916 101.945L61.7158 100.967C60.7613 101.163 59.7967 101.331 58.8232 101.473L58.9658 102.461C57.0109 102.745 55.0206 102.92 53.001 102.978L52.9727 101.979C52.4835 101.993 51.9926 102 51.5 102C51.0074 102 50.5165 101.993 50.0273 101.979L49.998 102.978C47.9784 102.92 45.9881 102.745 44.0332 102.461L44.1768 101.473C43.2033 101.331 42.2387 101.163 41.2842 100.967L41.083 101.945C39.1101 101.54 37.1785 101.021 35.2949 100.397L35.6094 99.4492C34.6771 99.1404 33.7569 98.8051 32.8496 98.4443L32.4795 99.3721C30.6149 98.6306 28.8038 97.7835 27.0537 96.8379L27.5293 95.96C26.6662 95.4936 25.8183 95.0025 24.9863 94.4883L24.4619 95.3359C22.7589 94.2833 21.1212 93.1355 19.5576 91.8975L20.1777 91.1152C19.4094 90.5069 18.6589 89.8767 17.9277 89.2256L17.2646 89.9688C15.7726 88.6399 14.358 87.2265 13.0293 85.7344L13.7744 85.0723C13.1233 84.3411 12.4931 83.5906 11.8848 82.8223L11.1016 83.4414C9.86362 81.8778 8.71572 80.2402 7.66309 78.5371L8.51172 78.0137C7.99747 77.1817 7.50638 76.3338 7.04004 75.4707L6.16113 75.9453C5.21553 74.1952 4.3684 72.3842 3.62695 70.5195L4.55566 70.1504C4.19488 69.2431 3.85957 68.3229 3.55078 67.3906L2.60156 67.7041C1.9777 65.8205 1.45895 63.889 1.05371 61.916L2.0332 61.7158C1.83713 60.7613 1.66873 59.7967 1.52734 58.8232L0.538086 58.9658C0.254197 57.0109 0.0792867 55.0206 0.0214844 53.001L1.02148 52.9727C1.00748 52.4835 1 51.9926 1 51.5C1 51.0074 1.00748 50.5165 1.02148 50.0273L0.0214844 49.998C0.0793251 47.9785 0.25416 45.9881 0.538086 44.0332L1.52734 44.1768C1.66873 43.2033 1.83712 42.2387 2.0332 41.2842L1.05371 41.083C1.45898 39.1101 1.97767 37.1785 2.60156 35.2949L3.55078 35.6094C3.85957 34.6771 4.19488 33.7569 4.55566 32.8496L3.62695 32.4795C4.36842 30.6149 5.21551 28.8038 6.16113 27.0537L7.04004 27.5293C7.50639 26.6662 7.99747 25.8183 8.51172 24.9863L7.66309 24.4619C8.71573 22.7589 9.86361 21.1212 11.1016 19.5576L11.8848 20.1777C12.4931 19.4094 13.1233 18.6589 13.7744 17.9277L13.0303 17.2646C14.3589 15.7728 15.7728 14.3589 17.2646 13.0303L17.9277 13.7744C18.6589 13.1233 19.4094 12.4931 20.1777 11.8848L19.5576 11.1016C21.1212 9.86361 22.7589 8.71573 24.4619 7.66309L24.9863 8.51172C25.8183 7.99747 26.6662 7.50639 27.5293 7.04004L27.0537 6.16113C28.8038 5.21551 30.6149 4.36842 32.4795 3.62695L32.8496 4.55566C33.7569 4.19488 34.6771 3.85957 35.6094 3.55078L35.2949 2.60156C37.1785 1.97767 39.1101 1.45898 41.083 1.05371L41.2842 2.0332C42.2387 1.83713 43.2033 1.66873 44.1768 1.52734L44.0332 0.538086C45.9881 0.25416 47.9785 0.0793247 49.998 0.0214844L50.0273 1.02148C50.5165 1.00748 51.0074 1 51.5 1C51.9926 1 52.4835 1.00748 52.9727 1.02148L53.001 0.0214844Z" stroke="#FF9E10" stroke-width="2" stroke-dasharray="3 6"/>
<ellipse cx="51.5" cy="51.5" rx="42.5" ry="42.5" fill="#FF9E10"/>
<path d="M73.9106 67.7874C73.7526 69.2016 72.4636 70.6591 71.0429 70.8654C69.7594 71.0517 65.9066 71.0306 64.5814 70.8876C63.1213 70.7301 61.7785 69.358 61.5832 67.8973C61.4351 66.7903 61.4549 64.0163 61.5712 62.8827C61.7138 61.4996 63.1377 59.7283 64.5825 59.7283H66.4661V57.47C66.4661 55.6487 64.0713 53.5291 62.3051 53.5291H53.1953L53.0637 53.6622V59.7283H54.9473C56.1847 59.7283 57.5626 61.2179 57.8402 62.3825C58.0925 63.4373 58.0881 67.5013 57.7689 68.5162C57.3893 69.7229 56.2933 70.587 55.1009 70.8665C52.1367 70.5859 46.0262 72.2807 45.6148 67.7475C45.5062 66.5574 45.5029 64.0584 45.6192 62.8738C45.7564 61.483 47.1946 59.7294 48.6405 59.7294H50.4363V53.5302H40.6694C39.0491 53.5302 36.5961 55.6177 36.5961 57.2936V59.7294H38.392C39.5702 59.7294 40.9437 61.1225 41.2629 62.2283C41.5405 63.1888 41.5119 66.5563 41.4165 67.6588C41.2871 69.1628 40.0496 70.648 38.5456 70.8665C37.2149 71.0595 33.5585 71.0207 32.1685 70.8909C30.3573 70.7223 29.1725 69.1606 29.0584 67.3937C28.9806 66.1836 28.9224 63.0824 29.2833 62.0342C29.6443 60.986 30.998 59.7294 32.0841 59.7294H33.836C33.9227 59.6739 33.949 59.6074 33.9677 59.5075C34.0861 58.8553 33.9062 57.8527 33.9786 57.1273C34.3198 53.6911 37.4869 50.9692 40.845 50.8738H50.4352V44.7623H46.4497C44.8228 44.7623 43.2222 43.2405 43.0741 41.6222C42.7944 38.5621 43.2584 35.0238 43.1169 31.9171C43.4383 30.3675 44.6955 29.1985 46.2709 29.0842C49.9174 28.818 53.8865 29.285 57.567 29.0953C59.1423 29.3815 60.36 30.7014 60.507 32.3219C60.7736 35.2601 60.3315 38.6142 60.484 41.5945C60.3622 43.2084 58.7299 44.7634 57.1359 44.7634H53.0626V50.8738C56.4239 50.9359 59.8071 50.7407 63.1553 50.9869C65.9231 51.2287 69.0913 54.4786 69.0913 57.2947V59.7305H70.8872C72.2771 59.7305 73.7515 61.5029 73.9095 62.8306C74.0334 63.8743 74.0269 66.7393 73.9095 67.7897L73.9106 67.7874Z" fill="white"/>
</svg>
