<svg width="80" height="80" viewBox="0 0 80 80" fill="none" xmlns="http://www.w3.org/2000/svg">
<circle cx="40" cy="40" r="40" fill="#05AC8F"/>
<path d="M61.3333 32.3196C61.077 32.8486 60.7151 33.1809 60.0839 33.2492L43.8182 33.2285C43.3648 33.1882 42.8833 32.8176 42.7303 32.4148C42.5408 31.9169 42.5752 29.5824 42.6248 28.9447C42.6894 28.1124 43.0459 27.6 43.955 27.5109L60.0839 27.514C60.7151 27.5824 61.077 27.9147 61.3333 28.4437V32.3196Z" fill="white"/>
<path d="M32.3889 27.5151H37.67C38.145 27.5151 38.6437 28.1693 38.7224 28.5959C38.8505 29.2946 38.8279 31.1539 38.7611 31.8962C38.7105 32.4645 38.2474 33.2492 37.5892 33.2492H32.3889V38.2474C32.3889 38.2702 32.2693 38.59 32.2424 38.6491C32.0097 39.147 31.5186 39.3292 30.9811 39.3737C30.2303 39.4358 28.2312 39.4659 27.53 39.353C27.1336 39.2888 26.4227 38.8033 26.4227 38.4027V33.2492H21.1416C20.7333 33.2492 20.1474 32.6623 20.072 32.2627C19.9707 31.7316 19.9761 28.9561 20.0892 28.4406C20.1732 28.0575 20.7538 27.5151 21.1416 27.5151H26.4227V22.3616C26.4227 21.961 27.1336 21.4755 27.53 21.4113C28.2377 21.2974 30.3047 21.3243 31.0619 21.3896C31.6457 21.4392 32.3889 21.9072 32.3889 22.5159V27.5151Z" fill="white"/>
<path d="M37.1175 53.7345C37.5591 54.2128 37.7163 54.7035 37.39 55.2978C37.2112 55.6228 35.7258 57.0401 35.3736 57.3113C32.9156 59.2027 31.0468 55.6528 29.3665 54.4054C28.3109 55.2791 27.3641 56.5121 26.3042 57.3506C25.5653 57.9355 24.6422 58.0815 23.7859 57.597C23.5134 57.4428 22.1024 56.0897 21.9214 55.8247C21.4324 55.1083 21.4744 54.1217 21.9882 53.4354L25.1269 50.3462C23.8936 49.0335 22.404 47.9124 21.3031 46.5003C21.1954 46.1742 21.1879 45.8357 21.3268 45.5148C21.4658 45.1938 23.5813 43.142 23.9658 42.8594C24.6745 42.3386 25.2745 42.4546 25.9402 42.9732C27.1476 43.9132 28.1838 45.3574 29.4354 46.2622L33.1203 42.7476C33.5016 42.4805 34.0778 42.4691 34.4904 42.6606C34.7779 42.7931 36.9613 44.8915 37.2252 45.2239C37.6215 45.7239 37.6862 46.2301 37.3081 46.7726L33.605 50.4031L37.1185 53.7345H37.1175Z" fill="white"/>
<path d="M43.3335 47.5262L59.9675 47.5417C60.3779 47.6246 60.8594 48.0718 60.9251 48.4807C61.0091 49.0045 61.0102 51.8421 60.896 52.3173C60.7237 53.0316 60.0236 53.1973 59.3622 53.2449C54.3708 53.6072 48.9152 52.9643 43.8753 53.2449C43.2387 53.2501 42.4223 52.9529 42.3124 52.2676C42.2026 51.5823 42.2306 49.3855 42.3038 48.6277C42.3609 48.0438 42.7551 47.6732 43.3346 47.5252L43.3335 47.5262Z" fill="white"/>
<path d="M51.3182 54.2718C55.2207 53.8722 55.7334 59.564 52.013 59.976C48.0395 60.4149 47.3975 54.6735 51.3182 54.2718Z" fill="white"/>
<path d="M49.5098 41.5684C52.293 38.8892 56.4949 43.0364 53.7181 45.6514C50.9413 48.2664 46.7416 44.2331 49.5098 41.5684Z" fill="white"/>
</svg>
