<svg width="61" height="59" viewBox="0 0 61 59" fill="none" xmlns="http://www.w3.org/2000/svg">
<path d="M31.8078 36.1235H53.4757C53.731 36.1235 54.1009 36.6521 54.1435 36.9271C54.2761 37.7781 53.9602 41.2331 54.2106 41.6389C56.1093 42.9253 58.3124 43.8075 60.2029 45.0906C60.4828 45.2804 60.8592 45.4457 60.9705 45.7943L61 54.29C60.9214 54.6108 60.6939 54.7777 60.4517 54.9676C59.1766 55.9676 55.7868 57.7662 54.2335 58.5632C53.2662 59.0608 53.3611 59.1753 52.3495 58.686C50.8061 57.938 48.9401 56.7679 47.4392 55.8694C46.606 55.3702 45.3997 54.9758 45.3064 53.9545C45.1313 52.0413 45.1313 48.1396 45.3064 46.2248C45.3424 45.8369 45.3883 45.5406 45.7615 45.3312L52.1859 41.5751V38.0842H31.685V41.2691C37.661 41.9303 41.3454 48.1003 38.9098 53.6861C35.9145 60.5599 26.1674 60.7923 22.7989 54.1182C19.9918 48.5537 23.632 42.0203 29.7192 41.2691V38.0842H9.22005V42.0039H15.6657C15.8982 42.0039 16.417 42.6193 16.3434 42.9204L16.2763 57.6827C16.0471 57.9544 15.8278 58.2343 15.4268 58.1835C10.8372 57.8562 5.69603 58.5943 1.17358 58.1819C0.443566 58.1148 0.19641 57.8677 0.129301 57.141C-0.28317 52.6305 0.45175 47.4997 0.132575 42.9221C0.0605562 42.6209 0.577783 42.0055 0.810207 42.0055H7.2559V36.9222C7.2559 36.6849 7.81732 36.1252 8.05465 36.1252H29.7225L29.8715 28.618C29.9337 28.2334 30.5245 27.8979 30.8797 27.9191C31.1694 27.9371 31.8094 28.4789 31.8094 28.7145V36.1268L31.8078 36.1235ZM29.5687 43.2608C21.4714 44.287 22.1802 57.3636 31.0074 57.0723C40.3208 56.7646 39.7233 41.9728 29.5687 43.2608ZM59.0359 46.683L53.2105 43.3787L47.3557 46.647L47.3361 53.5208L53.1156 56.8301L58.8623 53.6272L59.0669 53.2197L59.0342 46.683H59.0359ZM14.3759 43.9629H2.1V56.2131H14.3759V43.9629Z" fill="#070709"/>
<path d="M36.0635 29.7112C35.6592 30.0991 35.0339 30.1237 34.6296 29.6949L32.2694 24.3939C31.4182 24.0436 30.5131 23.7114 29.6276 24.1484L26.7174 30.4935C25.0904 33.117 23.9872 28.3561 23.2146 27.9748C22.4421 27.5934 18.1618 29.672 18.8542 27.055L21.8692 20.6329C20.8135 20.191 19.7495 19.4823 19.3731 18.3367C18.9966 17.1911 19.3534 16.5757 19.4091 15.4808C19.5237 13.1994 17.3336 12.2239 18.3681 9.66426C18.8608 8.44825 20.1784 7.97363 20.7414 7.01129C21.5647 5.6038 20.9149 4.08992 22.663 2.80354C23.9365 1.86575 25.3015 2.36001 26.6568 2.01141C27.2641 1.85593 28.2805 0.782309 28.8992 0.451712C29.9517 -0.112923 30.9288 -0.142382 32.0173 0.330602C32.8046 0.672656 33.826 1.83629 34.5069 2.01141C35.8605 2.36001 37.2272 1.86739 38.5006 2.80354C40.2487 4.08992 39.5973 5.6038 40.4222 7.01129C41.0426 8.07019 42.442 8.49734 42.8954 9.93266C43.6598 12.3434 41.6449 13.2845 41.7562 15.4808C41.8102 16.5446 42.1638 17.088 41.8119 18.2352C41.5074 19.2303 40.7627 19.8539 39.9279 20.3939L42.3095 25.9519C42.7596 28.5247 39.3485 26.8144 38.0211 26.7113C37.7232 26.7817 36.4743 29.3201 36.0651 29.7129L36.0635 29.7112ZM30.4296 1.96559C29.6865 2.04905 28.4098 3.40581 27.5472 3.75441C26.4817 4.18648 24.308 3.89025 23.6418 4.51217C23.0984 5.01952 22.9789 6.94092 22.5255 7.80833C21.9559 8.89668 20.252 9.79846 20.072 10.7592C19.9034 11.6642 21.1801 13.1175 21.3438 14.1601C21.5222 15.2975 21.1244 16.1977 21.1261 17.1944C21.1294 18.7082 23.6746 18.9685 24.6894 19.885C25.3686 20.4987 26.2312 22.4463 26.9825 22.6181C28.017 22.8554 29.4361 21.9422 30.6195 21.9569C31.8029 21.9717 33.0534 22.8014 34.0715 22.6378C34.957 22.4954 35.7574 20.4971 36.5365 19.8293C37.5497 18.9603 40.0294 18.6935 40.0327 17.1944C40.0343 16.1977 39.6382 15.2975 39.815 14.1601C39.9705 13.1699 41.2063 11.6773 41.113 10.8557C41.0017 9.8672 39.2421 8.92614 38.6774 7.88688C38.1929 6.99493 38.0571 5.01625 37.5169 4.51217C36.8524 3.89025 34.6787 4.18648 33.6115 3.75441C32.672 3.37472 31.3495 1.86248 30.4263 1.96559H30.4296ZM39.6644 25.0976L38.008 21.1795C36.8278 22.2662 36.3777 24.3398 34.5085 24.4855L35.5528 26.8095C35.7083 26.8095 36.5332 24.857 37.2059 24.6557C37.7101 24.5051 39.0784 25.0043 39.6628 25.096L39.6644 25.0976ZM23.704 21.6689C23.3865 21.61 23.5158 21.7131 23.4503 21.8424C22.7318 23.2515 22.1098 24.7425 21.4976 26.2007C22.2669 26.1401 23.4454 25.6131 24.1672 25.9257C24.6959 26.1549 25.4243 28.0353 25.6093 28.037L27.2657 24.6099C25.4439 24.6492 24.434 23.1091 23.704 21.6689Z" fill="#070709"/>
<path d="M29.3264 4.67256C41.1162 3.26015 41.0737 20.9242 29.9075 20.0732C20.73 19.3727 20.635 5.71345 29.3264 4.67256ZM26.4506 8.23385C21.2767 13.4596 28.8272 21.5429 34.389 16.7066C40.396 11.4825 31.9666 2.66115 26.4506 8.23385Z" fill="#070709"/>
</svg>
