<svg width="38" height="48" viewBox="0 0 38 48" fill="none" xmlns="http://www.w3.org/2000/svg">
<path d="M25.4495 0C26.1234 0.616853 26.7805 1.26375 27.4152 1.92192C30.5624 5.18833 34.1461 8.71387 37.0886 12.1099C37.3503 12.4122 37.7952 12.9013 37.8971 13.2694C38.0037 23.0761 38.0766 32.9373 37.8588 42.7422C37.3466 45.5654 34.978 47.7118 32.1327 47.9756C23.0865 47.8892 14.0039 48.1568 4.97731 47.8395C2.26289 47.2179 0.270075 44.8998 0.0233091 42.1122C0.131736 29.6822 -0.181394 17.2071 0.180342 4.80338C0.762671 2.3754 2.61435 0.654409 4.97918 0H25.4495ZM23.8605 2.25335H5.68022C4.26225 2.25335 2.37132 4.32454 2.36291 5.77514L2.35823 42.0192C2.55733 43.9337 4.05007 45.434 5.95689 45.634L32.1318 45.6293C33.7657 45.5138 35.6379 43.6755 35.6379 42.0155V14.6467H28.3004C26.4225 14.6467 23.8605 12.1718 23.8605 10.2809V2.25335ZM33.9554 12.2995L26.1973 4.13113V10.187C26.1973 10.8883 27.6171 12.2995 28.3004 12.2995H33.9554Z" fill="black"/>
<path d="M17.7848 20.0923L13.0617 25.1595C12.0325 26.1116 10.494 24.9351 11.2408 23.7061L18.0746 16.2992C19.0065 15.5359 19.5019 15.9434 20.2179 16.6635C22.407 18.8643 24.3951 21.3824 26.6123 23.5728C27.4404 24.7464 26.1187 26.121 24.9802 25.2121C23.4454 23.5362 21.8377 21.9185 20.3356 20.2125C20.2796 20.1487 20.3422 20.0341 20.1216 20.0923V33.0021C20.1216 33.0322 19.8393 33.4537 19.7851 33.5091C19.3205 33.9823 18.4494 33.9232 18.0643 33.3786C17.982 33.2612 17.7848 32.8256 17.7848 32.7204V20.0923Z" fill="black"/>
<path d="M8.65634 37.9632C8.77412 37.8506 8.96106 37.7839 9.10875 37.7135L28.5826 37.6478C30.1184 37.9604 29.9642 39.8992 28.392 39.9959L9.51161 39.9978C8.49277 39.9753 7.90483 38.6843 8.65634 37.9632Z" fill="black"/>
</svg>
