<svg width="40" height="41" viewBox="0 0 40 41" fill="none" xmlns="http://www.w3.org/2000/svg">
<path d="M22.4092 40.6699V25.2561H27.1408L27.8552 19.7896H22.5881V15.6218C22.5881 15.0973 23.2179 14.3457 23.7022 14.1414C23.9121 14.053 24.5824 13.8749 24.7756 13.8749H28.1236V8.85648C25.069 8.79076 21.4956 8.17182 19.0589 10.4672C16.4635 12.9131 17.0205 16.6351 16.9632 19.8792H12.3212V25.3457H16.9632V40.6699C9.89753 39.6292 3.71562 34.5163 1.24787 27.8119C-2.18718 18.4752 1.67964 8.06309 10.2661 3.25254C24.7148 -4.84152 42.0332 7.23504 39.8052 23.5821C38.5933 32.4731 31.3416 39.7618 22.4104 40.6687L22.4092 40.6699Z" fill="#FF9E10"/>
</svg>
