<svg width="341" height="103" viewBox="0 0 341 103" fill="none" xmlns="http://www.w3.org/2000/svg">
<path d="M130.41 61V43.06H123.15V39.85H141.51V43.06H134.25V61H130.41ZM148.469 61.3C146.809 61.3 145.379 60.99 144.179 60.37C142.979 59.75 142.049 58.87 141.389 57.73C140.749 56.59 140.429 55.24 140.429 53.68C140.429 52.16 140.739 50.83 141.359 49.69C141.999 48.55 142.869 47.66 143.969 47.02C145.089 46.36 146.359 46.03 147.779 46.03C149.179 46.03 150.379 46.33 151.379 46.93C152.379 47.53 153.149 48.38 153.689 49.48C154.249 50.58 154.529 51.89 154.529 53.41V54.52H143.459V52.36H151.889L151.409 52.81C151.409 51.45 151.109 50.41 150.509 49.69C149.909 48.95 149.049 48.58 147.929 48.58C147.089 48.58 146.369 48.78 145.769 49.18C145.189 49.56 144.739 50.11 144.419 50.83C144.119 51.53 143.969 52.37 143.969 53.35V53.56C143.969 54.66 144.139 55.57 144.479 56.29C144.819 57.01 145.329 57.55 146.009 57.91C146.689 58.27 147.529 58.45 148.529 58.45C149.349 58.45 150.169 58.33 150.989 58.09C151.809 57.83 152.559 57.43 153.239 56.89L154.289 59.41C153.589 59.99 152.709 60.45 151.649 60.79C150.589 61.13 149.529 61.3 148.469 61.3ZM162.329 61.3C161.269 61.3 160.319 61.1 159.479 60.7C158.659 60.28 158.009 59.72 157.529 59.02C157.069 58.32 156.839 57.53 156.839 56.65C156.839 55.57 157.119 54.72 157.679 54.1C158.239 53.46 159.149 53 160.409 52.72C161.669 52.44 163.359 52.3 165.479 52.3H166.979V54.46H165.509C164.569 54.46 163.779 54.5 163.139 54.58C162.499 54.64 161.979 54.75 161.579 54.91C161.199 55.05 160.919 55.25 160.739 55.51C160.579 55.77 160.499 56.09 160.499 56.47C160.499 57.13 160.729 57.67 161.189 58.09C161.649 58.51 162.289 58.72 163.109 58.72C163.769 58.72 164.349 58.57 164.849 58.27C165.369 57.95 165.779 57.52 166.079 56.98C166.379 56.44 166.529 55.82 166.529 55.12V51.67C166.529 50.67 166.309 49.95 165.869 49.51C165.429 49.07 164.689 48.85 163.649 48.85C162.829 48.85 161.989 48.98 161.129 49.24C160.269 49.48 159.399 49.86 158.519 50.38L157.439 47.83C157.959 47.47 158.569 47.16 159.269 46.9C159.989 46.62 160.739 46.41 161.519 46.27C162.319 46.11 163.069 46.03 163.769 46.03C165.209 46.03 166.389 46.25 167.309 46.69C168.249 47.13 168.949 47.8 169.409 48.7C169.869 49.58 170.099 50.72 170.099 52.12V61H166.589V57.88H166.829C166.689 58.58 166.409 59.19 165.989 59.71C165.589 60.21 165.079 60.6 164.459 60.88C163.839 61.16 163.129 61.3 162.329 61.3ZM173.965 61V46.33H177.625V49.27H177.295C177.555 48.59 177.915 48.01 178.375 47.53C178.835 47.05 179.385 46.68 180.025 46.42C180.665 46.16 181.375 46.03 182.155 46.03C183.335 46.03 184.305 46.31 185.065 46.87C185.825 47.43 186.355 48.29 186.655 49.45H186.235C186.635 48.39 187.295 47.56 188.215 46.96C189.135 46.34 190.195 46.03 191.395 46.03C192.515 46.03 193.435 46.25 194.155 46.69C194.895 47.13 195.445 47.8 195.805 48.7C196.165 49.58 196.345 50.7 196.345 52.06V61H192.595V52.21C192.595 51.09 192.405 50.27 192.025 49.75C191.665 49.23 191.045 48.97 190.165 48.97C189.525 48.97 188.965 49.13 188.485 49.45C188.005 49.75 187.635 50.19 187.375 50.77C187.135 51.35 187.015 52.05 187.015 52.87V61H183.265V52.21C183.265 51.09 183.075 50.27 182.695 49.75C182.335 49.23 181.725 48.97 180.865 48.97C180.205 48.97 179.635 49.13 179.155 49.45C178.695 49.75 178.335 50.19 178.075 50.77C177.835 51.35 177.715 52.05 177.715 52.87V61H173.965ZM213.76 61V43.06H206.5V39.85H224.86V43.06H217.6V61H213.76ZM229.987 61.3C228.767 61.3 227.757 61.08 226.957 60.64C226.157 60.18 225.557 59.5 225.157 58.6C224.777 57.7 224.587 56.58 224.587 55.24V46.33H228.337V55.3C228.337 55.98 228.427 56.55 228.607 57.01C228.807 57.47 229.097 57.81 229.477 58.03C229.877 58.25 230.377 58.36 230.977 58.36C231.657 58.36 232.247 58.21 232.747 57.91C233.267 57.59 233.667 57.15 233.947 56.59C234.247 56.01 234.397 55.34 234.397 54.58V46.33H238.147V61H234.487V57.94H234.907C234.487 59.02 233.847 59.85 232.987 60.43C232.147 61.01 231.147 61.3 229.987 61.3ZM248.77 61.3C246.81 61.3 245.35 60.81 244.39 59.83C243.43 58.85 242.95 57.42 242.95 55.54V49.15H240.13V46.33H242.95V41.95H246.7V46.33H251.14V49.15H246.7V55.33C246.7 56.29 246.91 57.01 247.33 57.49C247.75 57.97 248.43 58.21 249.37 58.21C249.65 58.21 249.94 58.18 250.24 58.12C250.54 58.04 250.85 57.96 251.17 57.88L251.74 60.64C251.38 60.84 250.92 61 250.36 61.12C249.82 61.24 249.29 61.3 248.77 61.3ZM260.107 61.3C258.587 61.3 257.267 60.99 256.147 60.37C255.027 59.75 254.157 58.87 253.537 57.73C252.917 56.57 252.607 55.21 252.607 53.65C252.607 52.09 252.917 50.74 253.537 49.6C254.157 48.46 255.027 47.58 256.147 46.96C257.267 46.34 258.587 46.03 260.107 46.03C261.627 46.03 262.947 46.34 264.067 46.96C265.187 47.58 266.057 48.46 266.677 49.6C267.297 50.74 267.607 52.09 267.607 53.65C267.607 55.21 267.297 56.57 266.677 57.73C266.057 58.87 265.187 59.75 264.067 60.37C262.947 60.99 261.627 61.3 260.107 61.3ZM260.107 58.45C261.227 58.45 262.127 58.05 262.807 57.25C263.487 56.43 263.827 55.23 263.827 53.65C263.827 52.05 263.487 50.86 262.807 50.08C262.127 49.28 261.227 48.88 260.107 48.88C258.987 48.88 258.087 49.28 257.407 50.08C256.727 50.86 256.387 52.05 256.387 53.65C256.387 55.23 256.727 56.43 257.407 57.25C258.087 58.05 258.987 58.45 260.107 58.45ZM270.702 61V46.33H274.362V49.87H274.062C274.342 48.67 274.892 47.76 275.712 47.14C276.532 46.5 277.622 46.13 278.982 46.03L280.122 45.94L280.362 49.12L278.202 49.33C276.982 49.45 276.062 49.83 275.442 50.47C274.822 51.09 274.512 51.97 274.512 53.11V61H270.702ZM282.81 61V39.85H296.88V42.91H286.5V48.73H296.22V51.79H286.5V57.94H296.88V61H282.81ZM298.31 61L305.18 52.54V54.31L298.7 46.33H303.08L307.28 51.7H305.96L310.16 46.33H314.54L308.06 54.28V52.6L314.93 61H310.52L305.96 55.24H307.22L302.69 61H298.31ZM323.576 61.3C321.916 61.3 320.486 60.99 319.286 60.37C318.086 59.75 317.156 58.87 316.496 57.73C315.856 56.59 315.536 55.24 315.536 53.68C315.536 52.16 315.846 50.83 316.466 49.69C317.106 48.55 317.976 47.66 319.076 47.02C320.196 46.36 321.466 46.03 322.886 46.03C324.286 46.03 325.486 46.33 326.486 46.93C327.486 47.53 328.256 48.38 328.796 49.48C329.356 50.58 329.636 51.89 329.636 53.41V54.52H318.566V52.36H326.996L326.516 52.81C326.516 51.45 326.216 50.41 325.616 49.69C325.016 48.95 324.156 48.58 323.036 48.58C322.196 48.58 321.476 48.78 320.876 49.18C320.296 49.56 319.846 50.11 319.526 50.83C319.226 51.53 319.076 52.37 319.076 53.35V53.56C319.076 54.66 319.246 55.57 319.586 56.29C319.926 57.01 320.436 57.55 321.116 57.91C321.796 58.27 322.636 58.45 323.636 58.45C324.456 58.45 325.276 58.33 326.096 58.09C326.916 57.83 327.666 57.43 328.346 56.89L329.396 59.41C328.696 59.99 327.816 60.45 326.756 60.79C325.696 61.13 324.636 61.3 323.576 61.3ZM337.706 61.3C335.966 61.3 334.676 60.83 333.836 59.89C333.016 58.93 332.606 57.53 332.606 55.69V39.85H336.356V55.51C336.356 56.09 336.436 56.59 336.596 57.01C336.776 57.41 337.036 57.71 337.376 57.91C337.716 58.11 338.136 58.21 338.636 58.21C338.856 58.21 339.076 58.2 339.296 58.18C339.516 58.16 339.726 58.12 339.926 58.06L339.866 61.03C339.506 61.11 339.146 61.17 338.786 61.21C338.446 61.27 338.086 61.3 337.706 61.3Z" fill="#070709"/>
<path d="M53.001 0.0214844C55.0206 0.0792871 57.0109 0.254196 58.9658 0.538086L58.8232 1.52734C59.7967 1.66873 60.7613 1.83713 61.7158 2.0332L61.916 1.05371C63.889 1.45895 65.8205 1.9777 67.7041 2.60156L67.3906 3.55078C68.3229 3.85957 69.2431 4.19488 70.1504 4.55566L70.5195 3.62695C72.3842 4.3684 74.1952 5.21553 75.9453 6.16113L75.4707 7.04004C76.3338 7.50638 77.1817 7.99747 78.0137 8.51172L78.5371 7.66309C80.2402 8.71572 81.8778 9.86362 83.4414 11.1016L82.8223 11.8848C83.5906 12.4931 84.3411 13.1233 85.0723 13.7744L85.7344 13.0303C87.2263 14.3589 88.6401 15.7727 89.9688 17.2646L89.2256 17.9277C89.8767 18.6589 90.5069 19.4094 91.1152 20.1777L91.8975 19.5576C93.1354 21.1212 94.2833 22.7589 95.3359 24.4619L94.4883 24.9863C95.0025 25.8183 95.4936 26.6662 95.96 27.5293L96.8379 27.0537C97.7835 28.8038 98.6306 30.6149 99.3721 32.4795L98.4443 32.8496C98.8051 33.7569 99.1404 34.6771 99.4492 35.6094L100.397 35.2949C101.021 37.1785 101.54 39.1101 101.945 41.083H101.946L100.967 41.2842C101.163 42.2387 101.331 43.2033 101.473 44.1768L102.461 44.0332C102.745 45.9881 102.92 47.9784 102.978 49.998L101.979 50.0273C101.993 50.5165 102 51.0074 102 51.5C102 51.9926 101.993 52.4835 101.979 52.9727L102.978 53.001C102.92 55.0206 102.745 57.0109 102.461 58.9658L101.473 58.8232C101.331 59.7967 101.163 60.7613 100.967 61.7158L101.945 61.916C101.54 63.889 101.021 65.8205 100.397 67.7041L99.4492 67.3906C99.1404 68.3229 98.8051 69.2431 98.4443 70.1504L99.3721 70.5195C98.6306 72.3842 97.7835 74.1952 96.8379 75.9453L95.96 75.4707C95.4936 76.3338 95.0025 77.1817 94.4883 78.0137L95.3359 78.5371C94.2833 80.2402 93.1354 81.8778 91.8975 83.4414L91.1152 82.8223C90.5069 83.5906 89.8767 84.3411 89.2256 85.0723L89.9697 85.7344C88.6409 87.2265 87.2265 88.6399 85.7344 89.9688L85.0723 89.2256C84.3411 89.8767 83.5906 90.5069 82.8223 91.1152L83.4414 91.8975C81.8778 93.1354 80.2402 94.2833 78.5371 95.3359L78.0137 94.4883C77.1817 95.0025 76.3338 95.4936 75.4707 95.96L75.9453 96.8379C74.1952 97.7835 72.3842 98.6306 70.5195 99.3721L70.1504 98.4443C69.2431 98.8051 68.3229 99.1404 67.3906 99.4492L67.7041 100.397C65.8205 101.021 63.889 101.54 61.916 101.945L61.7158 100.967C60.7613 101.163 59.7967 101.331 58.8232 101.473L58.9658 102.461C57.0109 102.745 55.0206 102.92 53.001 102.978L52.9727 101.979C52.4835 101.993 51.9926 102 51.5 102C51.0074 102 50.5165 101.993 50.0273 101.979L49.998 102.978C47.9784 102.92 45.9881 102.745 44.0332 102.461L44.1768 101.473C43.2033 101.331 42.2387 101.163 41.2842 100.967L41.083 101.945C39.1101 101.54 37.1785 101.021 35.2949 100.397L35.6094 99.4492C34.6771 99.1404 33.7569 98.8051 32.8496 98.4443L32.4795 99.3721C30.6149 98.6306 28.8038 97.7835 27.0537 96.8379L27.5293 95.96C26.6662 95.4936 25.8183 95.0025 24.9863 94.4883L24.4619 95.3359C22.7589 94.2833 21.1212 93.1355 19.5576 91.8975L20.1777 91.1152C19.4094 90.5069 18.6589 89.8767 17.9277 89.2256L17.2646 89.9688C15.7726 88.6399 14.358 87.2265 13.0293 85.7344L13.7744 85.0723C13.1233 84.3411 12.4931 83.5906 11.8848 82.8223L11.1016 83.4414C9.86362 81.8778 8.71572 80.2402 7.66309 78.5371L8.51172 78.0137C7.99747 77.1817 7.50638 76.3338 7.04004 75.4707L6.16113 75.9453C5.21553 74.1952 4.3684 72.3842 3.62695 70.5195L4.55566 70.1504C4.19488 69.2431 3.85957 68.3229 3.55078 67.3906L2.60156 67.7041C1.9777 65.8205 1.45895 63.889 1.05371 61.916L2.0332 61.7158C1.83713 60.7613 1.66873 59.7967 1.52734 58.8232L0.538086 58.9658C0.254197 57.0109 0.0792867 55.0206 0.0214844 53.001L1.02148 52.9727C1.00748 52.4835 1 51.9926 1 51.5C1 51.0074 1.00748 50.5165 1.02148 50.0273L0.0214844 49.998C0.0793251 47.9785 0.25416 45.9881 0.538086 44.0332L1.52734 44.1768C1.66873 43.2033 1.83712 42.2387 2.0332 41.2842L1.05371 41.083C1.45898 39.1101 1.97767 37.1785 2.60156 35.2949L3.55078 35.6094C3.85957 34.6771 4.19488 33.7569 4.55566 32.8496L3.62695 32.4795C4.36842 30.6149 5.21551 28.8038 6.16113 27.0537L7.04004 27.5293C7.50639 26.6662 7.99747 25.8183 8.51172 24.9863L7.66309 24.4619C8.71573 22.7589 9.86361 21.1212 11.1016 19.5576L11.8848 20.1777C12.4931 19.4094 13.1233 18.6589 13.7744 17.9277L13.0303 17.2646C14.3589 15.7728 15.7728 14.3589 17.2646 13.0303L17.9277 13.7744C18.6589 13.1233 19.4094 12.4931 20.1777 11.8848L19.5576 11.1016C21.1212 9.86361 22.7589 8.71573 24.4619 7.66309L24.9863 8.51172C25.8183 7.99747 26.6662 7.50639 27.5293 7.04004L27.0537 6.16113C28.8038 5.21551 30.6149 4.36842 32.4795 3.62695L32.8496 4.55566C33.7569 4.19488 34.6771 3.85957 35.6094 3.55078L35.2949 2.60156C37.1785 1.97767 39.1101 1.45898 41.083 1.05371L41.2842 2.0332C42.2387 1.83713 43.2033 1.66873 44.1768 1.52734L44.0332 0.538086C45.9881 0.25416 47.9785 0.0793247 49.998 0.0214844L50.0273 1.02148C50.5165 1.00748 51.0074 1 51.5 1C51.9926 1 52.4835 1.00748 52.9727 1.02148L53.001 0.0214844Z" stroke="#070709" stroke-width="2" stroke-dasharray="3 6"/>
<path d="M51.5 9.5C74.696 9.5 93.5 28.304 93.5 51.5C93.5 74.696 74.696 93.5 51.5 93.5C28.304 93.5 9.5 74.696 9.5 51.5C9.50001 28.304 28.304 9.5 51.5 9.5Z" fill="white" stroke="#F0F0F0"/>
<path d="M36.8139 65V41.92H27.4939V36.8H52.3339V41.92H43.0139V65H36.8139Z" fill="#22A3D2"/>
<path d="M55.3673 65V36.8H74.6873V41.64H61.2873V48.24H73.8073V53.12H61.2873V60.16H74.6873V65H55.3673Z" fill="#FF9E10"/>
</svg>
