<svg width="80" height="80" viewBox="0 0 80 80" fill="none" xmlns="http://www.w3.org/2000/svg">
<circle cx="40" cy="40" r="40" fill="#05AC8F"/>
<path d="M24.1267 20C24.3941 20.1191 24.6879 20.1548 24.9625 20.2678C25.1648 20.3513 25.6386 20.6689 25.7688 20.6862C26.0576 20.7239 26.9046 20.4836 27.2859 20.4582C31.4944 20.1711 35.9419 22.3163 39.4631 24.3954C42.2867 22.635 45.2965 21.0833 48.5726 20.3574L50.6896 20H52.4405L54.1314 20.3268C56.4467 20.9591 58.0288 22.5434 58.6603 24.8618L58.9867 26.555V28.3083L58.5688 30.7478C57.8072 33.9418 56.2505 36.8487 54.5707 39.6324C55.2072 40.898 55.9302 42.1167 56.4884 43.423C57.736 46.3442 58.6654 49.7031 57.9973 52.8859C58.4905 53.4958 58.7955 54.1464 58.9867 54.906C58.9562 55.245 59.0284 55.6431 58.9867 55.973C58.6989 58.2354 56.1539 59.5519 54.0959 58.775C53.7878 58.6589 52.9306 58.0379 52.8594 58.0307C52.5808 58.0032 51.7176 58.2354 51.3373 58.2588C48.0896 58.4604 44.4098 57.0767 41.5556 55.6319C41.2374 55.4711 39.88 54.6148 39.6868 54.6015C39.6003 54.5954 39.521 54.6158 39.4478 54.6596C34.9515 57.7996 24.328 62.1319 20.8912 55.5932C18.3492 50.7579 21.7901 43.6623 24.4053 39.4735C23.6559 38.154 22.8943 36.8426 22.2873 35.4467C21.242 33.0438 20.3045 30.0015 20.4743 27.3553C20.4997 26.9623 20.7458 26.0479 20.7021 25.7598C20.6675 25.5327 20.2333 24.9055 20.1306 24.4973C19.6232 22.468 21.0285 20.2627 23.1373 20H24.1267ZM53.0506 37.4525C53.1746 37.538 53.3282 37.2295 53.3851 37.1419C56.4518 32.4757 60.038 21.2615 50.4323 22.3723C47.2904 22.7358 44.359 24.2264 41.6319 25.717C41.6034 25.8433 41.6726 25.8718 41.7468 25.9441C42.1881 26.3738 42.9883 26.7474 43.452 27.2066C46.1374 25.769 49.326 27.8328 48.8542 30.9291C48.8095 31.2202 48.537 31.7558 48.6133 31.9431C50.2076 33.6771 51.7938 35.4538 53.0506 37.4535V37.4525ZM27.171 22.9344C27.2228 23.3182 27.171 23.8935 27.171 24.3058C27.171 25.3933 25.3255 27.1639 24.2405 27.1639H22.9462C22.9289 27.1639 22.8618 27.0508 22.8323 27.0875C22.4927 30.4648 23.9426 33.7626 25.4556 36.6919L25.8766 37.3395C29.0673 32.9236 32.9749 29.0424 37.3685 25.83C34.2896 24.1104 30.7054 22.4762 27.0927 22.8203C27.0805 22.8774 27.1659 22.9089 27.1699 22.9334L27.171 22.9344ZM39.4753 27.1771C34.6943 30.477 30.4796 34.6993 27.1811 39.4858C30.4634 44.3374 34.6933 48.5964 39.6146 51.7802C44.3407 48.5098 48.4882 44.3608 51.7511 39.6253C50.4374 37.4321 48.7515 35.4833 47.0321 33.6018C46.5441 33.6242 46.0784 33.9103 45.5496 33.9459C43.4011 34.0895 41.5384 32.1621 41.7082 30.0239C41.7316 29.7327 41.9929 29.1025 41.9003 28.9182L39.4743 27.1781L39.4753 27.1771ZM37.4457 53.0784C33.7151 50.5513 30.3912 47.3908 27.5533 43.8914C27.0489 43.2693 26.4684 42.2878 25.9518 41.7604C25.8796 41.687 25.8532 41.6158 25.7261 41.6443C24.2832 44.3129 22.758 47.2402 22.3859 50.3038C21.2227 59.8838 31.6144 56.6175 36.5082 53.7748C36.7248 53.6485 37.221 53.4072 37.3664 53.2616C37.4295 53.1985 37.4742 53.1924 37.4468 53.0773L37.4457 53.0784ZM55.8651 51.8576C56.1793 48.9415 55.1625 45.8616 53.8996 43.2703C53.7552 42.974 53.3312 42.076 53.1614 41.8754C53.0577 41.7532 53.0648 41.8276 52.9713 41.91C49.8395 46.1945 46.0245 49.9342 41.7854 53.115C44.8155 54.7929 48.2889 56.255 51.8304 55.8966V54.7919C51.8304 53.6689 53.6383 51.8576 54.7608 51.8576H55.8651Z" fill="white"/>
<path d="M38.8 34.122C43.2952 33.6618 46.4738 38.2955 44.1829 42.2562C41.8585 46.2759 35.7557 45.6243 34.3464 41.2044C33.3347 38.0308 35.4354 34.4662 38.8 34.122Z" fill="white"/>
</svg>
