<svg width="59" height="50" viewBox="0 0 59 50" fill="none" xmlns="http://www.w3.org/2000/svg">
<path d="M41.4089 32.7902C31.5466 23.0011 14.4855 28.8174 12.7119 42.5888C12.6139 43.3526 12.6945 44.5324 12.5538 45.1675C12.44 45.6756 12.0322 45.8122 11.5785 45.8534C8.153 46.1647 4.27383 45.6042 0.799329 45.8534C-0.1839 45.7232 0.00579065 44.2846 0.0310827 43.5209C0.530601 28.8332 12.557 16.6306 26.9561 15.3619C43.3643 13.9154 58.2376 26.7929 58.96 43.4082C58.9932 44.1862 59.2003 45.7217 58.1981 45.855C54.722 45.6073 50.846 46.1631 47.4189 45.855C46.902 45.809 46.5147 45.6407 46.4262 45.0675C46.3156 44.3545 46.3883 43.3796 46.2855 42.5888C45.8224 38.9892 43.9618 35.326 41.4073 32.7902H41.4089ZM28.5526 17.2657C24.3842 17.2959 20.2568 18.482 16.5974 20.4271L20.9381 27.9742C23.3804 26.877 25.8669 26.1704 28.5526 25.9592V17.2657ZM30.4448 17.2657V25.9592C33.1321 26.1704 35.6139 26.8675 38.0593 27.9742L42.4 20.4271C38.7406 18.4773 34.618 17.2943 30.4448 17.2657ZM13.7584 34.6527C15.0277 32.3122 17.138 30.6053 19.1867 28.9809L14.887 21.4465C11.3841 23.6187 8.33478 26.6579 6.18496 30.1909L13.7568 34.6527H13.7584ZM52.8046 30.3608C52.8425 30.2321 52.7951 30.1289 52.7477 30.013C52.5248 29.47 51.3408 27.9822 50.914 27.4518C49.7758 26.0418 48.233 24.4889 46.8325 23.344C46.5195 23.0884 44.2827 21.4005 44.1215 21.437L39.8139 28.9015C39.7918 29.1381 41.5938 30.3703 41.9274 30.664C43.1683 31.7597 44.4329 33.211 45.2407 34.6559L52.8061 30.3623L52.8046 30.3608ZM10.6854 43.9417C10.785 41.201 11.6401 38.6938 12.6945 36.2072L5.12585 31.9137C3.20049 35.6483 2.13665 39.7259 1.92799 43.9417H10.6854ZM57.0694 43.9417C56.8671 39.7164 55.7906 35.6578 53.8731 31.9137L46.3045 36.2056C47.3541 38.6906 48.2046 41.2058 48.3152 43.9417H57.071H57.0694Z" fill="#0F2A47"/>
<path d="M52.2339 10.4618C53.4748 11.17 55.5061 11.7559 55.1219 13.5819C54.7426 15.3857 52.4979 14.9046 51.1795 15.2698C50.7101 16.4416 50.9567 18.2693 49.613 18.8758C47.5596 19.8015 46.8261 17.1451 46.2887 15.7287C44.9371 15.7986 42.6134 16.5877 41.9827 14.8839C41.3046 13.0563 43.2268 12.418 44.1515 11.2303C43.9112 9.81393 42.3336 8.37534 43.5761 6.99867C44.9134 5.51561 46.5748 7.29083 47.8789 7.83705C49.1435 7.086 49.9323 5.26473 51.6727 5.96656C53.5301 6.71603 52.2497 9.06923 52.2339 10.4634V10.4618ZM52.9279 13.0976C52.2086 12.3688 50.8207 12.183 50.4176 11.1604C49.9877 10.0728 50.7227 9.0597 50.6215 7.97837C50.0525 8.45473 49.0835 9.64244 48.3658 9.75677C47.049 9.96637 46.3409 9.0724 45.2391 8.57382C45.1158 8.72943 46.0547 10.4475 46.1322 10.8302C46.4626 12.4577 44.8534 12.9753 44.0551 14.0519C45.1537 14.0202 46.4515 13.4739 47.4094 14.1901C48.1888 14.7728 48.2757 16.0955 48.9048 16.7925C49.1072 15.9288 49.1546 14.4568 49.7932 13.8153C50.503 13.1024 52.0079 13.3072 52.9294 13.0992L52.9279 13.0976Z" fill="#0F2A47"/>
<path d="M15.3786 6.94627C16.6986 8.2753 15.0909 9.82505 14.8443 11.2287C15.8007 12.426 17.8304 13.1691 16.9341 15.0443C16.2133 16.5544 14.0129 15.7811 12.7072 15.7271C12.165 16.9942 11.7113 19.2347 9.92818 19.0441C8.14509 18.8536 8.2763 16.5623 7.8163 15.2698C6.61967 14.8712 4.82077 15.3778 4.07623 14.0932C2.9207 12.0989 5.49733 11.17 6.78881 10.3998C6.72083 9.02635 5.56056 7.05265 7.09705 6.09359C8.81375 5.0202 9.86495 7.06694 11.1185 7.83546C12.4289 7.29718 13.997 5.5569 15.3786 6.94627ZM13.7599 8.57223C12.6581 9.07082 11.95 9.96478 10.6332 9.75518C9.8697 9.63292 8.97341 8.41186 8.31898 7.97678C8.32846 9.06764 9.00344 10.0855 8.5798 11.1588C8.15616 12.2322 6.78881 12.3672 6.06956 13.096C6.99114 13.3024 8.49602 13.0992 9.20578 13.8121C9.84441 14.4536 9.89183 15.9256 10.0942 16.7894C10.7233 16.0923 10.8102 14.7696 11.5896 14.1869C12.5475 13.4708 13.8453 14.017 14.9439 14.0487C14.1583 12.9452 12.5317 12.4736 12.8668 10.827C12.9443 10.4459 13.8832 8.72625 13.7599 8.57064V8.57223Z" fill="#0F2A47"/>
<path d="M29.2339 0.0248127C31.2668 -0.275292 31.3838 2.22081 31.9797 3.5165C33.1921 3.68958 35.7482 3.13383 36.0991 4.84871C36.507 6.84306 34.7065 7.20826 33.5352 8.29436C33.7454 9.779 35.1823 11.5542 33.5146 12.6737C31.9797 13.7042 30.8068 11.9686 29.5532 11.3049C28.2096 11.8289 27.0936 13.7534 25.486 12.6737C23.8183 11.5526 25.2568 9.779 25.4654 8.29436C24.3889 7.29718 22.3703 6.7065 22.9062 4.85665C23.4421 3.0068 25.6583 3.73086 27.0193 3.5165C27.6295 2.33038 27.5741 0.269342 29.2339 0.0248127ZM27.5457 5.47591C26.8201 5.60612 25.7673 5.38064 25.0023 5.47591C25.6219 6.25079 26.9766 6.63981 27.3086 7.61952C27.6611 8.65956 26.9466 9.83934 26.6589 10.8333C26.7806 10.954 28.3977 9.60116 28.6823 9.47731C30.2757 8.78024 31.0233 10.1966 32.2785 10.8365C32.1125 9.78059 31.3126 8.72943 31.6888 7.6211C32.0208 6.63981 33.3755 6.25079 33.9952 5.4775H31.4517C31.3632 5.4775 30.7973 5.14564 30.6898 5.05355C30.1065 4.55178 29.9247 3.36724 29.6481 2.64318C29.5991 2.51616 29.686 2.30497 29.441 2.38119C29.3019 2.42406 28.9336 4.51844 28.3092 5.05513C28.1796 5.16628 27.6911 5.45368 27.5473 5.47909L27.5457 5.47591Z" fill="#0F2A47"/>
<path d="M39.0457 35.2863C39.3792 35.5927 39.4266 36.1929 39.1374 36.5534L33.6948 42.0347C36.1924 46.1742 32.5677 51.2728 27.8476 49.7119C23.8467 48.3892 23.295 42.746 26.9355 40.5865C28.7091 39.5338 30.5728 39.7339 32.3417 40.6707L37.4902 35.4895C37.985 35.1053 38.4798 34.7639 39.0473 35.2863H39.0457ZM28.9968 41.8298C25.2789 42.3633 25.712 48.1797 29.5517 48.113C33.8339 48.0399 33.4324 41.1931 28.9968 41.8298Z" fill="#0F2A47"/>
</svg>
