<svg width="59" height="59" viewBox="0 0 59 59" fill="none" xmlns="http://www.w3.org/2000/svg">
<path d="M0.0336676 27.6562C0.748456 23.0261 6.79596 21.966 9.82086 25.06L15.2514 31.8946C17.7192 32.223 21.6765 31.1213 23.5607 33.0838C23.8323 33.3661 24.5517 34.5162 24.5517 34.8572V36.8738H34.4506V34.8572C34.4506 34.5162 35.17 33.3661 35.4416 33.0838C37.3247 31.1213 41.2831 32.223 43.7509 31.8946L49.1814 25.06C52.0694 21.9591 58.4207 23.0711 58.9686 27.6562V45.0566C58.4725 47.7428 56.3167 50.1223 53.5059 50.362C50.8032 50.5925 47.7945 50.1661 45.0596 50.377L41.4765 58.6001L40.8975 59H40.322C39.5968 58.7384 39.164 58.115 39.4058 57.3395C40.6903 54.6637 41.6295 51.6492 42.9498 49.0115C43.2502 48.4111 43.4113 48.0262 44.1756 47.934C46.9956 47.5941 50.5328 48.2901 53.3562 47.9064C55.3314 47.639 56.4157 45.9601 56.5561 44.0806C56.9359 38.9988 56.2741 33.4353 56.5377 28.3027C56.3155 26.1582 54.7743 25.6143 52.8118 25.8125C51.7436 25.9208 51.1877 26.5581 50.5063 27.3071C48.6013 29.4067 46.9772 31.9879 45.0688 34.1105C44.788 34.2995 44.5198 34.4147 44.1779 34.4539C42.1395 34.6855 39.7442 34.2384 37.6677 34.5046C36.6813 34.9667 36.8643 35.9531 36.8677 36.8727H47.2845C48.4333 35.6166 49.3276 33.9112 50.4533 32.6701C50.9759 32.0939 51.3281 31.7217 52.1442 32.1239C53.0132 32.5526 52.9119 33.2958 52.5022 34.0287C51.6826 35.4945 50.0631 36.9476 49.2125 38.456C48.9685 39.6349 49.6511 43.3097 48.652 44.0022C47.8624 44.5496 44.0916 44.0956 42.8266 44.2777C41.8367 44.4194 41.2658 45.0405 40.8952 45.9163C39.2711 49.7547 38.3721 54.2846 36.8125 58.1922L35.9481 58.9977H35.2575C34.6117 58.5091 34.3435 58.2176 34.4794 57.3545C36.1622 53.4526 36.9529 48.3489 38.7692 44.5957C39.301 43.4964 41.0644 41.8289 42.3363 41.8289H46.6526V39.2938H12.3497V41.8289H16.666C17.9379 41.8289 19.7001 43.4964 20.2331 44.5957C22.0494 48.3489 22.8413 53.4526 24.523 57.3545C24.6599 58.2176 24.3917 58.5091 23.7449 58.9977H23.0542L22.1898 58.1922C20.6302 54.2846 19.7312 49.7547 18.1071 45.9163C17.7365 45.0405 17.1656 44.4194 16.1757 44.2777C14.9107 44.0956 11.1399 44.5496 10.3503 44.0022C9.35124 43.3097 10.0327 39.636 9.78979 38.456C9.08651 37.0133 6.7269 34.9575 6.2826 33.5539C5.93729 32.4638 7.03307 31.6641 7.97462 32.0928C8.81487 32.4754 10.8154 36.1064 11.7178 36.8727H22.1346C22.138 35.9531 22.321 34.9656 21.3346 34.5046C19.2674 34.2638 16.9768 34.6487 14.936 34.4574C14.1338 34.3825 13.8967 34.0241 13.3902 33.4698C11.6706 31.5892 9.32822 27.6125 7.45895 26.2711C5.82449 25.0992 2.4209 25.8425 2.46694 28.3016C2.73053 33.4329 2.06869 38.9976 2.44853 44.0795C2.58895 45.9589 3.67322 47.6379 5.64839 47.9052C8.47186 48.2878 12.0101 47.5929 14.829 47.9329C15.5933 48.0251 15.7544 48.41 16.0548 49.0103C17.3751 51.6469 18.3143 54.6626 19.5989 57.3383C19.8406 58.1138 19.4078 58.7373 18.6826 58.9988H18.1071L17.5282 58.599L13.945 50.3759C11.2102 50.165 8.20252 50.5913 5.49875 50.3609C2.68794 50.1212 0.530912 47.7416 0.0359696 45.0555V27.6551L0.0336676 27.6562Z" fill="#070709"/>
<path d="M41.1254 0C42.837 0.4425 44.0064 1.60406 44.232 3.40057C43.8775 8.30725 44.7097 13.8984 44.232 18.7244C44.0502 20.5601 42.6448 21.9084 40.8365 22.1238L28.7749 22.148L24.1477 26.7344C23.3754 27.3048 22.2934 26.9706 22.1392 25.9773C22.0137 25.1603 22.0149 21.5073 22.1587 20.7111C22.3026 19.9148 23.0957 19.5069 23.8531 19.7685C24.0154 19.8249 24.5494 20.3608 24.5494 20.4541V22.8164C25.7453 21.8761 26.6339 20.4748 27.9507 19.7108C31.9344 19.4458 36.3314 20.045 40.2656 19.7097C41.4085 19.6117 41.74 19.152 41.8206 18.0399C42.1464 13.5308 41.5628 8.63682 41.8206 4.08621C41.8586 3.09174 41.2681 2.41762 40.2656 2.41646H18.7333C17.6789 2.50635 17.2692 2.92119 17.1794 3.97213C16.7915 8.53426 17.4764 13.6438 17.1851 18.2635C17.3774 20.1891 18.9796 19.2407 19.5102 20.3147C20.0408 21.3887 19.1603 22.2045 18.0622 22.1158C16.2609 21.9694 14.9119 20.3527 14.7634 18.615C14.3433 13.7325 15.0753 8.24271 14.7795 3.29686C15.0465 1.54414 16.1999 0.437891 17.8746 0H41.1254Z" fill="#070709"/>
<path d="M0.0336676 13.9434C0.918809 6.53955 12.4061 7.12609 12.3543 14.8019C12.3036 22.3543 0.916507 22.9351 0.0336676 15.5566C-0.0112225 15.1775 -0.0112225 14.3225 0.0336676 13.9434ZM5.64493 11.0925C1.03391 11.6974 1.79244 18.9007 6.52432 18.4248C11.4081 17.9339 10.584 10.4448 5.64493 11.0925Z" fill="#070709"/>
<path d="M58.9663 15.5566C58.0812 22.9604 46.5939 22.3739 46.6457 14.6981C46.6964 7.14568 58.0835 6.5649 58.9663 13.9434C59.0112 14.3225 59.0112 15.1775 58.9663 15.5566ZM52.3767 11.0925C47.6494 11.6548 48.4126 18.9238 53.2561 18.4248C57.9488 17.9408 57.2881 10.5094 52.3767 11.0925Z" fill="#070709"/>
<path d="M30.7661 41.8301H28.2339V59H30.7661V41.8301Z" fill="#070709"/>
<path d="M28.4065 9.79492H30.5935L30.7661 9.96777V12.1572L30.5935 12.3301H28.4065L28.2339 12.1572V9.96777L28.4065 9.79492Z" fill="#070709"/>
<path d="M25.8167 9.79492H23.3995V12.3301H25.8167V9.79492Z" fill="#070709"/>
<path d="M35.6005 9.79492H33.1833V12.3301H35.6005V9.79492Z" fill="#070709"/>
</svg>
