<svg width="40" height="41" viewBox="0 0 40 41" fill="none" xmlns="http://www.w3.org/2000/svg">
<path d="M18.7791 0.706838C34.8938 -0.245787 45.5188 17.4327 36.9656 31.2399C29.0358 44.0411 10.2879 43.7457 2.72208 30.7407C-4.76152 17.8776 4.03179 1.57732 18.7791 0.706838ZM14.6248 8.46759C10.6529 8.74068 8.05165 11.0001 7.6866 15.041C8.34199 21.703 4.81847 32.3334 14.7614 32.9254C20.9812 32.36 31.3606 35.4899 32.2978 26.4043C31.6403 19.674 35.2065 8.99244 25.1515 8.43985C22.0475 8.26917 17.716 8.25423 14.6248 8.46652V8.46759Z" fill="white"/>
<path d="M19.8999 10.7025L20.4304 10.7675C24.5186 10.7846 29.5781 9.87466 30.0648 15.4411C29.8471 18.8846 30.3498 22.6716 30.0509 26.0746C29.5727 31.5322 23.9838 30.6564 19.9671 30.6553C18.3137 30.6553 16.3796 30.7108 14.7571 30.6084C11.8559 30.427 10.1993 28.829 9.92389 25.9274C10.115 22.5063 9.68052 18.8302 9.92389 15.44C10.337 9.6805 15.8032 10.9233 19.8999 10.7014V10.7025ZM26.204 12.9427C25.8934 13.0078 25.4536 13.3737 25.3309 13.667C24.8185 14.8938 26.1421 16.0246 27.2597 15.2789C28.4413 14.4895 27.6471 12.6397 26.204 12.9427ZM19.0972 14.226C14.1892 14.7797 11.8015 20.8656 14.882 24.723C18.1002 28.7543 24.6573 27.6268 26.1869 22.6855C27.6279 18.0312 23.8888 13.6852 19.0972 14.226Z" fill="white"/>
<path d="M19.2562 16.5452C24.4748 15.8379 26.0055 22.8743 21.5341 24.5865C18.0746 25.9103 14.7432 22.5329 16.1213 19.0862C16.6187 17.8424 17.9092 16.7276 19.2562 16.5452Z" fill="white"/>
</svg>
