<svg width="55" height="54" viewBox="0 0 55 54" fill="none" xmlns="http://www.w3.org/2000/svg">
<path d="M2.56119 3.5952C2.21152 3.66851 1.97027 4.0979 1.93057 4.43453C1.59464 7.27269 2.1932 10.7273 1.92599 13.6312C1.76871 14.6232 0.269267 14.6247 0.110466 13.6312C0.339506 10.6375 -0.219351 7.14702 0.102832 4.21161C0.231094 3.05061 1.21444 2.07064 2.35964 1.82678L25.8576 1.80433C26.2256 0.981462 26.818 0.397971 27.7006 0.110714L52.3987 0C53.7195 0.106225 54.7868 1.14155 54.967 2.41625L54.9563 17.4434C54.6005 19.1819 53.0309 19.9913 51.3085 19.7534L51.2993 33.6016C51.0642 34.8314 50.032 35.8129 48.7417 35.9161L2.26955 35.8608C1.16252 35.59 0.321183 34.7013 0.11352 33.6016L0.110466 21.3872C0.261633 20.4401 1.63587 20.3803 1.90766 21.2929L1.92904 33.2784C1.93973 33.6674 2.20389 33.9921 2.5841 34.0938L48.5127 34.1237C48.8242 34.2255 49.4792 33.7587 49.4792 33.5014V19.7549H47.6499V31.706C47.6499 31.9633 46.9949 32.4301 46.6834 32.3284H4.72791C4.34617 32.3448 4.02399 32.1773 3.84839 31.8451L3.75678 6.3406C3.65295 6.03539 4.12935 5.39205 4.39046 5.39205H25.7064V3.5967H2.56119V3.5952ZM31.1927 22.222L36.4178 17.982L52.5728 17.9087L53.0873 17.403V2.35491C52.956 2.03025 52.6522 1.80733 52.2842 1.79685L28.5022 1.79386C28.119 1.7774 27.7968 1.94647 27.6227 2.27711L27.5616 17.3177C27.8441 18.5565 30.1452 17.5317 30.9117 18.181C30.9774 18.2363 31.1957 18.5326 31.1957 18.576V22.2235L31.1927 22.222ZM25.7064 7.18591H5.59062V30.5256H7.41989C7.43058 27.1473 10.4661 24.7849 13.8208 25.1395L13.7964 22.8609C12.8649 21.9737 12.1442 20.7498 12.0053 19.4572C11.9763 19.1864 12.0327 18.0299 11.9778 17.9685C11.8739 17.8518 11.2036 17.976 11.083 17.2205C10.8417 15.7004 11.0341 13.0253 11.8174 11.6713C13.2879 9.13089 15.9341 8.78528 18.6825 8.97529C21.3012 9.15632 23.5886 11.1671 23.8634 13.7629C23.9352 14.4392 23.9871 16.7237 23.8527 17.3162C23.7077 17.9566 23.0587 17.8773 22.9763 17.97C22.9213 18.0314 22.9778 19.1894 22.9488 19.4587C22.8098 20.7498 22.0891 21.9752 21.1577 22.8624L21.1333 25.141C24.4818 24.7714 27.525 27.1563 27.5342 30.527H45.8222V19.7549H36.9645L30.5376 25.1185C29.994 25.2457 29.4596 24.9644 29.3695 24.4049C29.2596 23.7107 29.5314 19.918 29.3634 19.7549C28.1526 19.8641 26.9661 19.6577 26.2271 18.6268C26.1309 18.4937 25.7049 17.6573 25.7049 17.5676V7.18591H25.7064ZM22.0494 15.7139V13.8617C22.0494 12.7126 20.692 11.3317 19.614 10.9786C18.5359 10.6255 16.0012 10.642 14.9996 11.0923C14.1552 11.4723 12.9062 12.8144 12.9062 13.7494V16.1612H15.4775C15.8165 16.1612 17.1037 15.7169 17.5053 15.5717C18.0779 15.3653 19.843 14.3718 20.1652 14.3584C20.9592 14.324 21.4295 15.3548 22.0494 15.7124V15.7139ZM13.8193 17.9581C13.4742 20.2202 14.9858 22.4285 17.4182 22.4554C20.2064 22.4868 21.5547 19.9524 21.1104 17.4763L20.0491 16.4185C19.533 16.631 19.0582 16.9497 18.5344 17.1472C17.9298 17.3746 16.1524 17.9596 15.5905 17.9596H13.8193V17.9581ZM19.3055 23.9052C18.1527 24.3869 16.7998 24.3465 15.6485 23.9052V25.9818C15.6485 26.0102 15.9402 26.3603 16.0028 26.4202C16.7357 27.1204 18.2138 27.1263 18.9513 26.4202C19.0139 26.3603 19.3055 26.0102 19.3055 25.9818V23.9052ZM25.7064 30.5256C25.6728 27.9432 23.3336 26.5503 20.8676 26.9528C19.7773 28.5222 17.9939 29.0908 16.128 28.5387C15.3645 28.3128 15.0408 27.9567 14.5018 27.442C14.2422 27.1952 14.3216 26.9797 13.8834 26.9259C11.4174 26.6281 9.33466 28.0076 9.24762 30.5241H25.7064V30.5256Z" fill="#0F2A47"/>
<path d="M11.9916 45.8983C14.3828 46.1855 16.3434 48.343 16.5617 50.6695C16.609 51.1811 16.6381 53.1052 16.4365 53.4597C16.2472 53.7904 15.9494 53.8398 15.5982 53.8712C10.9884 54.2826 5.74951 53.548 1.071 53.8712C0.504506 53.8772 0.167054 53.5734 0.102923 53.0274C-0.292552 49.7015 1.06642 46.4982 4.67761 45.8983C4.24854 45.0216 3.84085 44.3932 3.75992 43.3788C3.14304 35.7725 13.6285 35.8248 12.9062 43.485C12.8162 44.447 12.3871 45.062 11.9931 45.8983H11.9916ZM10.2356 45.0739C11.8267 43.6077 11.3243 39.9168 8.82017 39.5308C4.80129 38.9099 4.41345 45.3417 7.94219 45.7771C8.73161 45.8744 9.65846 45.6065 10.2356 45.0739ZM14.734 52.0698C15.0409 49.863 13.717 47.7759 11.3671 47.577C9.78977 47.4438 7.00313 47.4588 5.41512 47.577C2.95065 47.758 1.6436 49.7404 1.93371 52.0698H14.7355H14.734Z" fill="#0F2A47"/>
<path d="M31.1928 45.8983C33.584 46.1855 35.5445 48.343 35.7629 50.6695C35.8102 51.1811 35.8392 53.1052 35.6377 53.4597C35.4483 53.7904 35.1506 53.8398 34.7994 53.8712C30.1896 54.2826 24.9507 53.548 20.2722 53.8712C19.9454 53.8876 19.5988 53.7485 19.4339 53.4597C19.2232 53.0917 19.2644 51.0929 19.3209 50.5692C19.5621 48.2951 21.5395 46.1721 23.8788 45.8983C23.4497 45.0216 23.042 44.3932 22.9611 43.3788C22.3442 35.7725 32.8296 35.8248 32.1074 43.485C32.0173 44.447 31.5882 45.062 31.1943 45.8983H31.1928ZM25.5187 44.9602C26.1096 45.5527 27.0899 45.8788 27.9267 45.7756C31.4676 45.3387 31.0584 38.9099 27.0487 39.5293C24.6163 39.9048 24.0467 43.485 25.5187 44.9602ZM33.9367 52.0698C34.2146 49.7538 32.9121 47.752 30.4553 47.577C28.8535 47.4632 26.0913 47.4438 24.5033 47.577C22.1472 47.7759 20.8249 49.8526 21.1364 52.0698H33.9382H33.9367Z" fill="#0F2A47"/>
<path d="M50.3955 45.8983C52.7866 46.1855 54.7472 48.343 54.9656 50.6695C55.0129 51.1811 55.0419 53.1052 54.8404 53.4597C54.651 53.7904 54.3533 53.8398 54.0021 53.8712C49.3923 54.2826 44.1534 53.548 39.4748 53.8712C39.1481 53.8876 38.8015 53.7485 38.6366 53.4597C38.4258 53.0917 38.4671 51.0929 38.5236 50.5692C38.7648 48.2951 40.7422 46.1721 43.0815 45.8983C42.6524 45.0216 42.2447 44.3932 42.1638 43.3788C41.5469 35.7725 52.0323 35.8248 51.3101 43.485C51.22 44.447 50.7909 45.062 50.397 45.8983H50.3955ZM44.7214 44.9602C45.3123 45.5527 46.2926 45.8788 47.1294 45.7756C50.6703 45.3387 50.2611 38.9099 46.2514 39.5293C43.819 39.9048 43.2494 43.485 44.7214 44.9602ZM53.1378 52.0698C53.4081 49.7463 52.1484 47.7535 49.6564 47.577C48.0547 47.4632 45.2925 47.4438 43.7044 47.577C41.3484 47.7759 40.0261 49.8526 40.3376 52.0698H53.1394H53.1378Z" fill="#0F2A47"/>
<path d="M0.759504 16.1851C2.2559 15.865 2.20856 18.2483 1.58863 18.6852C0.000618918 19.8028 -0.503268 16.4544 0.759504 16.1851Z" fill="#0F2A47"/>
<path d="M36.4195 4.51532C36.6561 4.46445 36.8867 4.46745 37.105 4.58115C39.3405 6.13563 42.0141 7.37144 44.2129 8.93489C44.9321 9.44657 45.2909 9.9373 44.4908 10.6465L36.734 15.2725C36.1752 15.28 35.827 14.9793 35.7613 14.4257C35.43 11.6204 36.0163 8.20328 35.7613 5.33221C35.769 4.96117 36.0438 4.59611 36.4179 4.51532H36.4195ZM37.5937 7.07371V12.6842L42.1668 9.8236L37.5937 7.07371Z" fill="#0F2A47"/>
</svg>
