<svg width="57" height="59" viewBox="0 0 57 59" fill="none" xmlns="http://www.w3.org/2000/svg">
<path d="M45.4229 19.5022L47.8739 14.1572C48.6908 13.3499 49.5444 13.2421 50.6146 13.5497C51.6848 13.8574 54.8938 15.1723 55.8112 15.7385C56.6154 16.2334 57.0629 17.0787 56.9928 18.0193C53.3921 27.3533 49.3199 36.5366 45.4786 45.7881C45.1347 48.8032 45.7526 52.2751 45.4102 55.2363C45.1872 57.1697 43.3701 58.8604 41.4336 59H4.11198C1.92381 58.8715 0.138552 57.0729 0 54.8953V4.211C0.100331 2.10312 1.67218 0.337832 3.77117 0.00634426L33.0774 0C33.3402 0.049168 33.5982 0.299766 33.8004 0.467889C35.9488 2.23635 38.5271 5.1325 40.5354 7.18804C42.1805 8.87086 43.8096 10.5886 45.4197 12.3063V19.5038L45.4229 19.5022ZM4.11676 1.77798C4.05465 1.77798 3.35074 2.02858 3.23448 2.08726C2.35698 2.5266 1.85851 3.50203 1.78844 4.4505V54.5384C1.92381 56.1007 2.90323 57.0793 4.47031 57.2157H40.9574C42.069 57.2902 43.6361 55.9944 43.6361 54.8921V49.3599L36.9553 55.2426C36.1287 55.7042 35.5124 55.3251 35.4105 54.4147C35.0665 51.3171 35.2385 48.118 34.928 45.0109L43.6361 24.0812V13.4355H34.5171C34.1444 13.4355 33.1363 12.7869 32.8449 12.4871C32.5726 12.2079 31.9547 11.2182 31.9547 10.8772V1.77798H4.11676ZM42.2043 11.6512L33.7399 3.20544V10.2825C33.7399 10.8011 34.4613 11.6496 34.9917 11.6496H42.2043V11.6512ZM54.1199 20.5713C54.1645 19.9305 55.2761 18.1985 55.1471 17.7148C55.0579 17.3801 54.7187 17.2437 54.4431 17.1025C53.5306 16.6346 50.9921 15.5418 50.0493 15.3023C49.7786 15.2341 49.5381 15.1295 49.2849 15.3293C48.9393 15.6021 48.3787 17.6989 48.0443 18.1937L54.1199 20.5713ZM49.476 20.6934L47.3324 19.8591L37.0938 44.3273C37.0604 44.4732 37.1655 44.5208 37.269 44.589C37.4569 44.7112 39.1212 45.3757 39.2135 45.3075L49.4744 20.6934H49.476ZM53.287 22.243L51.1466 21.4055L40.8921 46.1465L43.0357 46.9808L53.287 22.243ZM41.7266 48.4099L36.8406 46.386L37.1989 52.4527L41.7266 48.4099Z" fill="#0F2A47"/>
<path d="M7.3608 5.372H28.4096L28.7409 5.63687L28.8269 13.4704C28.6135 13.9415 28.0609 13.9907 27.6038 14.0351C21.3036 13.6861 14.5273 14.4855 8.28289 14.0351C7.07892 13.9478 6.87985 13.7496 6.79226 12.5474C6.67759 10.9597 6.64255 8.035 6.79863 6.47749C6.83525 6.11111 6.9547 5.48778 7.35921 5.37041L7.3608 5.372ZM27.0639 7.13094H8.70651V12.127H27.0639V7.13094Z" fill="#0F2A47"/>
<path d="M5.2841 30.9584C5.48636 30.7871 5.98483 30.703 6.25875 30.6792C8.45807 30.4953 12.4044 30.5079 14.6133 30.6792C15.752 30.7681 15.9049 31.0583 15.9845 32.1654C16.1199 34.0322 16.139 37.2218 15.9845 39.0743C15.8889 40.2178 15.5911 40.3638 14.4955 40.4431C12.3296 40.5985 8.39437 40.6413 6.26034 40.4431C5.47362 40.3701 5.08344 40.1322 5.007 39.3138C4.78086 36.8585 5.19174 34.0639 5.007 31.5706C5.02611 31.385 5.15033 31.0694 5.2857 30.9568L5.2841 30.9584ZM14.0702 32.5873H6.79863V38.535H14.0702V32.5873Z" fill="#0F2A47"/>
<path d="M5.28729 27.791C5.14396 27.6594 5.02611 27.3786 5.00541 27.1804C5.19014 24.6871 4.77767 21.8924 5.00541 19.4372C5.04204 19.0423 5.10415 18.8091 5.42106 18.5427L15.2105 18.4253C15.8523 18.4745 15.9399 19.1549 15.9829 19.6767C16.139 21.5308 16.1183 24.7172 15.9829 26.5856C15.9351 27.2422 15.8985 27.8402 15.1516 28.0162C12.285 27.8719 8.82914 28.3842 6.02146 28.0702C5.80169 28.0448 5.44655 27.9369 5.28729 27.791ZM14.0702 20.216H6.79863V26.1637H14.0702V20.216Z" fill="#0F2A47"/>
<path d="M5.81283 43.0839C8.68581 43.2837 12.1655 42.7222 14.9669 43.0537C15.7711 43.1489 15.9208 43.6992 15.9813 44.4209C16.1342 46.2322 16.1406 49.6422 15.9813 51.4488C15.9128 52.2243 15.7791 52.624 14.9684 52.6986C12.0509 52.965 8.73836 52.4845 5.7778 52.6986C5.33029 52.6764 5.03248 52.218 5.007 51.8024C5.22677 49.3234 4.72193 46.367 5.007 43.9467C5.07229 43.3963 5.31436 43.2551 5.81124 43.0839H5.81283ZM14.0702 44.9586H6.79863V50.9063H14.0702V44.9586Z" fill="#0F2A47"/>
<path d="M18.9259 20.1256L39.9971 20.097C41.3651 20.1843 41.4718 21.7782 40.1197 22.0035H19.0151C17.7682 21.8576 17.6997 20.3714 18.9275 20.1256H18.9259Z" fill="#0F2A47"/>
<path d="M18.8049 32.4937L35.8293 32.4667C37.1735 32.6222 36.9664 34.4113 35.5889 34.3732H19.1378C17.9083 34.2812 17.5898 32.9568 18.8049 32.4953V32.4937Z" fill="#0F2A47"/>
<path d="M18.2762 26.0115C17.8064 25.5388 18.0628 24.5554 18.7731 24.492H34.6397C35.6239 24.6189 35.7386 26.1447 34.5171 26.2843C29.5642 25.9417 24.0126 26.7299 19.1298 26.2874C18.8798 26.2652 18.4498 26.1843 18.2746 26.0099L18.2762 26.0115Z" fill="#0F2A47"/>
<path d="M18.2762 45.1108C18.4498 44.9364 18.8798 44.8555 19.1314 44.8333C22.9917 44.4828 27.3808 45.1093 31.2985 44.838C32.3528 44.8983 32.4993 46.4907 31.4212 46.6303H18.7731C18.0628 46.5668 17.8048 45.5835 18.2762 45.1108Z" fill="#0F2A47"/>
<path d="M18.9259 36.7792C22.1939 36.9949 26.0718 36.3938 29.2696 36.7507C30.7523 36.9172 30.6456 38.5096 29.3922 38.6571C26.196 39.0315 22.2878 38.3701 19.0151 38.6571C17.7682 38.5112 17.6997 37.0251 18.9275 36.7792H18.9259Z" fill="#0F2A47"/>
<path d="M18.8049 49.1474L26.282 49.1299C27.5624 49.3853 27.513 50.8683 26.1737 51.0284C24.8343 51.1886 20.38 51.2029 19.0295 51.0142C17.8335 50.8476 17.7013 49.5629 18.8049 49.1474Z" fill="#0F2A47"/>
<path d="M11.2928 33.8022C11.9123 33.6166 12.6783 33.9608 12.6385 34.6603C12.6035 35.255 10.4472 37.4121 9.83882 37.4121C8.98043 37.4121 7.34487 35.4882 8.61733 34.9378C9.38016 34.6079 9.69071 35.1852 9.84041 35.1852C10.0013 35.1852 10.9807 33.8958 11.2944 33.8022H11.2928Z" fill="#0F2A47"/>
<path d="M11.5349 21.0693C12.2627 20.9186 12.828 21.6894 12.5509 22.3254C12.4713 22.5078 10.5889 24.4143 10.3691 24.5523C10.0745 24.7378 9.76078 24.8298 9.42316 24.6744C9.32761 24.63 8.30837 23.5927 8.24467 23.4722C7.99941 23.0059 8.15548 22.5887 8.59185 22.3032C9.35309 21.8052 9.56012 22.5586 9.93437 22.4634C10.4153 22.1795 11.0189 21.1755 11.5365 21.0693H11.5349Z" fill="#0F2A47"/>
</svg>
