<svg width="54" height="54" viewBox="0 0 54 54" fill="none" xmlns="http://www.w3.org/2000/svg">
<path d="M20.7897 50.3752C20.7754 50.4424 20.5922 50.6941 20.5249 50.7527C17.9713 51.6637 15.4005 52.7105 12.8096 53.5356C11.5142 53.9489 10.4979 54.1176 9.10509 53.9131C6.46126 52.862 3.55549 52.127 0.941725 51.0445C0.679776 50.9358 0.175917 50.7956 0.0585414 50.5354L0.0499529 40.8941C0.483672 40.1162 1.14928 40.8326 1.8063 40.7783C2.73243 39.0308 4.65482 37.9168 6.53999 37.4763C6.57864 37.0602 6.14206 36.8771 5.91589 36.5497C2.98292 32.3096 6.91216 26.8111 11.8734 28.1353C13.0043 28.4371 13.6599 29.215 14.7248 29.5425C16.026 27.4904 18.1817 26.0318 20.575 25.5956C20.7124 25.4655 19.9395 24.8277 19.8278 24.6847C16.0961 19.8583 20.784 13.13 26.66 14.969C27.8609 15.3451 28.674 16.2804 29.935 16.4863C31.3708 14.0724 33.85 12.6395 36.541 12.0003L35.9513 11.4669C32.6461 7.85748 34.0833 1.87708 38.764 0.359815C45.0279 -1.67083 50.2096 5.31488 46.4879 10.7533L45.3285 12.0017C48.0196 12.6409 50.4988 14.0738 51.9345 16.4877C52.6144 16.4405 53.5477 15.5511 53.9585 16.4934L54 28.3212L53.844 28.7016L42.4628 32.853C41.5367 32.8187 40.3958 32.9932 39.4969 32.8688C38.6481 32.7515 37.553 32.0107 36.6484 31.9149V40.3178C36.6484 40.661 36.2605 40.8398 36.0028 40.957C32.984 42.3399 29.2809 43.1035 26.1948 44.432C25.2844 44.3691 24.2051 44.5464 23.3176 44.4291C22.5217 44.3247 21.6128 43.7084 20.7912 43.5826V50.3795L20.7897 50.3752ZM40.2656 1.32509C33.2559 2.11446 34.2093 12.8912 41.4121 12.3192C48.5921 11.7486 47.729 0.484227 40.2656 1.32509ZM50.5746 17.0297C50.211 15.8857 48.9027 14.919 47.8621 14.337C47.0576 13.8879 44.64 12.9398 43.7854 12.9984C43.4877 13.0185 42.8235 13.3631 42.4356 13.4489C41.4508 13.6648 40.506 13.6663 39.5184 13.4675C39.0718 13.3774 38.389 13.0199 38.0798 12.9984C37.46 12.957 35.426 13.6591 34.7875 13.9423C33.4391 14.5415 31.856 15.5782 31.2863 16.9725C33.5207 17.7519 35.7351 18.6528 37.9853 19.3878C39.5499 19.8998 40.7537 20.1028 42.4385 19.8726L50.5761 17.0283L50.5746 17.0297ZM23.9804 15.9901C18.0242 16.7094 18.7228 26.0775 24.9122 25.8073C31.5912 25.5155 30.9413 15.1492 23.9804 15.9901ZM52.7189 17.6732L42.9681 20.9909V31.2671L52.7189 27.7878V17.6718V17.6732ZM38.8971 20.9909L30.2185 17.995C31.1632 19.7125 31.1618 21.9204 30.2772 23.6722C29.9307 24.3586 29.3539 24.9063 28.9316 25.5398C30.9213 26.0975 32.8251 27.0628 34.1205 28.7074C34.2593 28.8833 34.527 29.4538 34.61 29.5082C34.9464 29.7255 35.8225 28.7846 36.3836 29.3366C36.6856 29.6326 36.6326 30.1188 36.6613 30.5035L38.8971 31.2671V20.9909ZM41.6827 31.5889V21.3656C41.3663 21.1082 40.5118 21.1039 40.1825 21.3656V31.5889H41.6827ZM33.3246 30.0888C33.5179 29.8156 32.2425 28.5872 31.9834 28.3799C31.0802 27.6577 28.5122 26.5094 27.3771 26.548C26.7315 26.5695 25.7882 27.0714 24.9179 27.0971C23.09 27.1515 22.6792 26.2792 20.5994 26.8512C18.8945 27.3188 16.8748 28.3956 16.0718 30.0359C18.143 30.6894 20.1656 31.5746 22.2326 32.2338C23.6068 32.6714 24.6846 32.8015 26.1518 32.6128L33.3232 30.0888H33.3246ZM9.72775 29.2622C4.52456 29.9758 5.4106 38.1599 10.8672 37.5721C16.3022 36.9872 15.482 28.4728 9.72775 29.2622ZM35.3615 30.7323L26.5755 33.8898V42.9348L35.3615 39.8302V30.7309V30.7323ZM22.8252 33.7296L15.4334 31.1613C16.1276 33.0132 15.9888 34.9852 14.8365 36.614C14.679 36.8371 14.1523 37.196 14.1465 37.4234C16.0761 37.9225 18.0071 38.9836 18.9876 40.7783C19.324 40.9756 20.0382 40.2134 20.6065 40.6839C20.9687 40.9842 20.6709 41.7879 20.8384 42.1926L22.8252 42.9376V33.7296ZM25.2901 33.9441C24.9065 33.9928 24.394 33.7997 24.112 34.1043V43.1493H25.2901V33.9441ZM17.7895 41.3288C17.4288 40.498 16.4926 39.8087 15.7182 39.3854C15.0541 39.0222 13.4294 38.4044 12.6994 38.4302C12.1483 38.4487 11.3682 38.8363 10.6696 38.872C9.01777 38.9578 8.59694 38.187 6.7547 38.7076C5.33617 39.108 3.75875 39.9746 3.00296 41.2745C4.73498 41.8765 6.45124 42.5944 8.199 43.1507C9.35129 43.5182 10.2187 43.7556 11.4741 43.5282L17.7909 41.3274L17.7895 41.3288ZM8.68139 44.6479L1.28813 42.0796V49.7331L8.68139 52.3558V44.6479ZM19.5029 42.0796L12.1096 44.6479V52.3544L19.5029 49.7317V42.0782V42.0796ZM10.8242 44.8624H9.9668V52.6761H10.8242V44.8624Z" fill="#0F2A47"/>
<path d="M12.6092 23.738C11.9479 24.3458 10.0427 24.29 9.16521 24.2028C8.4495 24.1313 7.62357 23.6207 7.51049 22.86C7.46182 22.5396 7.57777 22.0792 7.48616 21.8132C7.41029 21.5929 6.7046 21.3227 6.56432 20.4861C6.33959 19.1433 6.73753 18.1251 6.21935 16.6565C5.09283 13.4689 2.57926 12.5995 3.80599 8.36228C5.79852 1.48096 16.0718 2.25032 17.0265 9.28608C17.6048 13.5519 14.3312 14.7102 14.0406 18.2667C13.9662 19.1776 14.2696 20.4518 13.7643 21.2011C13.6355 21.3913 13.3034 21.5958 13.2376 21.7445C12.9756 22.338 13.3278 23.0802 12.6092 23.7394V23.738ZM8.68139 17.4587V12.4808C8.2219 12.1962 7.6794 12.0918 7.21419 11.8058C3.93768 9.79231 8.2219 5.33776 9.53165 9.27607C9.73062 9.87525 9.85801 10.6232 9.85944 11.2509L10.7054 11.2381C10.8471 10.5002 10.8944 9.79374 11.1706 9.08159C12.3487 6.05564 15.5508 8.64543 14.3111 10.9349C13.8874 11.7171 12.8568 12.1962 12.0023 12.3206V17.4587L12.8454 17.4444C12.9942 15.1993 15.5007 13.2458 15.7411 11.1852C16.6444 3.44154 5.53514 2.69363 4.83661 9.7108C4.50452 13.0499 7.34015 14.3541 7.72091 17.453L8.67996 17.4573L8.68139 17.4587ZM8.03296 9.00722C6.64019 9.3919 7.44035 10.8448 8.5726 11.0364L8.03296 9.00722ZM13.0458 9.14022C12.3873 8.51243 12.0338 10.6403 12.1111 11.0364C12.8869 10.872 13.7973 9.85666 13.0458 9.14022ZM10.7169 12.5351H9.9668V17.4587H10.7169V12.5351ZM12.7538 18.7443H7.8254V20.2959C7.8254 20.6091 8.28632 20.6548 8.51678 20.6749C9.01491 20.7178 12.2943 20.7292 12.5376 20.6148C12.5877 20.5905 12.7538 20.4203 12.7538 20.4017V18.7429V18.7443ZM11.8963 21.9547H8.78874C8.78874 22.2722 8.69284 22.7842 9.07789 22.8971C9.34986 22.9772 11.4039 22.9543 11.6573 22.8471C11.9565 22.7212 11.8906 22.2136 11.8963 21.9547Z" fill="#0F2A47"/>
<path d="M51.9688 39.404L27.1824 53.6586C26.2892 54.4279 25.1799 53.4455 26.2177 52.6947L51.1057 38.3815L51.2173 38.1198C50.3127 38.1127 47.7848 38.0112 49.2133 36.6984L53.7867 37.3204C53.8798 37.3977 53.9671 37.5464 53.9871 37.6637C54.1002 38.3014 52.5715 41.0543 52.3381 41.8608C51.7398 42.3656 51.0928 41.9766 51.2431 41.1973C51.2946 40.9284 52.049 39.4898 51.9688 39.4054V39.404Z" fill="#0F2A47"/>
<path d="M10.1529 0.030907C10.5093 -0.0434548 10.8586 0.120999 10.9287 0.495668C10.9802 0.767374 10.9788 2.03724 10.9287 2.31038C10.8027 2.98822 9.77356 2.97391 9.65189 2.19884C9.566 1.64684 9.47582 0.17248 10.1529 0.030907Z" fill="#0F2A47"/>
<path d="M0.508006 9.6679C1.14642 9.52061 3.08169 9.43623 2.76964 10.5302C2.61791 11.0636 0.840094 11.0336 0.40065 10.9063C-0.171916 10.7419 -0.126111 9.81376 0.508006 9.6679Z" fill="#0F2A47"/>
<path d="M5.33188 1.31222C5.46929 1.28648 5.55375 1.29935 5.684 1.33939C6.21935 1.50241 7.69228 4.14082 6.06047 3.86483C5.6654 3.79761 4.13092 1.54102 5.33044 1.31222H5.33188Z" fill="#0F2A47"/>
<path d="M1.79628 4.8444C2.09401 4.78863 3.524 5.55369 3.70722 5.7825C4.11804 6.29588 3.73728 6.97086 3.08169 6.84072C2.92424 6.80926 1.6789 6.12285 1.55294 6.00701C1.14212 5.6252 1.2366 4.95022 1.79485 4.8444H1.79628Z" fill="#0F2A47"/>
<path d="M18.5109 4.8444C19.1021 4.72428 19.5072 5.32775 19.1894 5.85257C19.1064 5.98985 17.8639 6.75921 17.6864 6.81498C16.9793 7.03807 16.4139 6.33592 16.8834 5.79537C16.9507 5.71672 18.415 4.86442 18.5124 4.8444H18.5109Z" fill="#0F2A47"/>
<path d="M14.7119 1.4352C15.1643 1.05767 15.8342 1.44378 15.7497 2.08872C15.7096 2.39332 14.878 3.76186 14.606 3.84337C14.1551 3.97923 13.6627 3.67606 13.7357 3.19414C13.7586 3.04256 14.6046 1.52529 14.7119 1.4352Z" fill="#0F2A47"/>
<path d="M20.4419 10.7976C20.2 11.0407 18.1846 11.0121 17.9555 10.7104C17.018 9.46913 20.3331 9.29895 20.555 10.0426C20.6108 10.2299 20.5779 10.6618 20.4419 10.7976Z" fill="#0F2A47"/>
</svg>
