<svg width="148" height="23" viewBox="0 0 148 23" fill="none" xmlns="http://www.w3.org/2000/svg">
<path d="M11.5 0L14.0819 7.9463H22.4371L15.6776 12.8574L18.2595 20.8037L11.5 15.8926L4.74047 20.8037L7.32238 12.8574L0.56285 7.9463H8.91809L11.5 0Z" fill="#FFBB57"/>
<path d="M42.7143 0L45.2962 7.9463H53.6514L46.8919 12.8574L49.4738 20.8037L42.7143 15.8926L35.9547 20.8037L38.5367 12.8574L31.7771 7.9463H40.1324L42.7143 0Z" fill="#FFBB57"/>
<path d="M73.9286 0L76.5105 7.9463H84.8657L78.1062 12.8574L80.6881 20.8037L73.9286 15.8926L67.169 20.8037L69.751 12.8574L62.9914 7.9463H71.3467L73.9286 0Z" fill="#FFBB57"/>
<path d="M105.143 0L107.725 7.9463H116.08L109.32 12.8574L111.902 20.8037L105.143 15.8926L98.3833 20.8037L100.965 12.8574L94.2057 7.9463H102.561L105.143 0Z" fill="#FFBB57"/>
<path d="M136.357 0L138.939 7.9463H147.294L140.535 12.8574L143.117 20.8037L136.357 15.8926L129.598 20.8037L132.18 12.8574L125.42 7.9463H133.775L136.357 0Z" fill="#FFBB57"/>
</svg>
